<svg data-v-423bf9ae="" xmlns="http://www.w3.org/2000/svg" viewBox="0 0 621.6905356353184 60" class="font"><!----><!----><!----><g data-v-423bf9ae="" id="3db745d0-ff45-446a-96a2-7f65fd6bd3cb" fill="white" transform="matrix(4.528301886792453,0,0,4.528301886792453,-3.1245305133315924,-11.456604359284889)"><path d="M5.01 13.01L5.01 13.01Q3.82 13.01 2.83 12.44L2.83 12.44L2.83 12.44Q1.85 11.87 1.27 10.82L1.27 10.82L1.27 10.82Q0.69 9.77 0.69 8.37L0.69 8.37L0.69 8.37Q0.69 6.96 1.25 5.88L1.25 5.88L1.25 5.88Q1.81 4.80 2.84 4.21L2.84 4.21L2.84 4.21Q3.88 3.61 5.26 3.61L5.26 3.61L5.26 3.61Q6.47 3.61 7.41 4.10L7.41 4.10L7.41 4.10Q8.34 4.58 8.34 5.59L8.34 5.59L8.34 5.59Q8.36 6.22 7.97 6.66L7.97 6.66L7.97 6.66Q7.57 7.10 6.92 7.10L6.92 7.10L6.92 7.10Q6.66 7.10 6.49 7.01L6.49 7.01L6.49 7.01Q6.31 6.92 6.23 6.79L6.23 6.79L6.23 6.79Q6.15 6.66 6.16 6.59L6.16 6.59L6.16 6.59Q6.16 6.57 6.36 6.44L6.36 6.44L6.36 6.44Q6.55 6.31 6.71 6.09L6.71 6.09L6.71 6.09Q6.86 5.87 6.86 5.54L6.86 5.54L6.86 5.54Q6.86 4.91 6.43 4.54L6.43 4.54L6.43 4.54Q6.01 4.17 5.25 4.17L5.25 4.17L5.25 4.17Q4.40 4.17 3.73 4.66L3.73 4.66L3.73 4.66Q3.07 5.14 2.69 6.07L2.69 6.07L2.69 6.07Q2.32 7.00 2.32 8.29L2.32 8.29L2.32 8.29Q2.32 9.41 2.72 10.33L2.72 10.33L2.72 10.33Q3.12 11.24 3.85 11.78L3.85 11.78L3.85 11.78Q4.58 12.32 5.52 12.32L5.52 12.32L5.52 12.32Q6.27 12.32 6.81 12.01L6.81 12.01L6.81 12.01Q7.35 11.69 7.78 10.99L7.78 10.99L7.78 10.99Q7.85 10.86 7.98 10.86L7.98 10.86L7.98 10.86Q8.09 10.86 8.23 10.95L8.23 10.95L8.23 10.95Q8.46 11.10 8.46 11.26L8.46 11.26L8.46 11.26Q8.46 11.34 8.40 11.40L8.40 11.40L8.40 11.40Q7.87 12.07 7.40 12.41L7.40 12.41L7.40 12.41Q6.93 12.75 6.38 12.88L6.38 12.88L6.38 12.88Q5.84 13.01 5.01 13.01L5.01 13.01ZM10.29 15.78L10.29 15.78Q9.69 15.78 9.22 15.39L9.22 15.39L9.22 15.39Q8.75 15.01 8.75 14.48L8.75 14.48L8.75 14.48Q8.75 13.85 9.10 13.67L9.10 13.67L9.10 13.67Q9.45 13.50 9.65 13.50L9.65 13.50L9.65 13.50Q9.88 13.50 10.04 13.59L10.04 13.59L10.04 13.59Q10.19 13.69 10.19 13.78L10.19 13.78L10.19 13.78Q10.19 13.80 10.08 13.92L10.08 13.92L10.08 13.92Q9.97 14.03 9.97 14.31L9.97 14.31L9.97 14.31Q9.97 14.59 10.14 14.80L10.14 14.80L10.14 14.80Q10.32 15.01 10.64 15.01L10.64 15.01L10.64 15.01Q11.52 15.01 12.36 13.20L12.36 13.20L12.36 13.20Q12.42 13.01 12.42 12.91L12.42 12.91L12.42 12.91Q12.42 12.77 12.35 12.56L12.35 12.56L12.35 12.56Q12.07 11.93 11.41 10.22L11.41 10.22L11.41 10.22Q10.84 8.69 10.47 7.90L10.47 7.90L10.47 7.90Q10.23 7.35 10.02 7.15L10.02 7.15L10.02 7.15Q9.81 6.94 9.41 6.89L9.41 6.89L9.41 6.89Q9.37 6.87 9.25 6.86L9.25 6.86L9.25 6.86Q9.14 6.85 9.11 6.79L9.11 6.79L9.11 6.79Q9.09 6.73 9.09 6.59L9.09 6.59L9.09 6.59Q9.09 6.43 9.18 6.38L9.18 6.38L9.18 6.38Q9.27 6.34 9.40 6.34L9.40 6.34L9.40 6.34Q9.53 6.33 9.58 6.33L9.58 6.33L9.58 6.33Q10.43 6.29 10.92 6.57L10.92 6.57L10.92 6.57Q11.41 6.86 11.73 7.57L11.73 7.57L11.73 7.57Q12.04 8.29 12.28 8.93L12.28 8.93L12.28 8.93Q12.84 10.44 13.19 11.14L13.19 11.14L13.23 11.14L14.60 7.48L14.60 7.48Q14.67 7.24 14.67 7.14L14.67 7.14L14.67 7.14Q14.67 6.99 14.53 6.93L14.53 6.93L14.53 6.93Q14.39 6.87 14.07 6.87L14.07 6.87L13.99 6.87L13.99 6.87Q13.87 6.87 13.82 6.83L13.82 6.83L13.82 6.83Q13.78 6.79 13.76 6.62L13.76 6.62L13.76 6.62Q13.76 6.52 13.81 6.43L13.81 6.43L13.81 6.43Q13.86 6.34 13.96 6.34L13.96 6.34L13.96 6.34Q14.76 6.38 15.32 6.38L15.32 6.38L15.32 6.38Q15.54 6.38 16.18 6.36L16.18 6.36L16.48 6.34L16.48 6.34Q16.58 6.34 16.63 6.43L16.63 6.43L16.63 6.43Q16.69 6.52 16.69 6.62L16.69 6.62L16.69 6.62Q16.67 6.79 16.62 6.83L16.62 6.83L16.62 6.83Q16.56 6.87 16.45 6.87L16.45 6.87L16.45 6.87Q15.93 6.87 15.65 7.04L15.65 7.04L15.65 7.04Q15.37 7.21 15.18 7.70L15.18 7.70L15.18 7.70Q14.85 8.50 14.14 10.26L14.14 10.26L14.14 10.26Q13.43 12.03 13.08 12.87L13.08 12.87L13.08 12.87Q12.57 14.07 11.90 14.92L11.90 14.92L11.90 14.92Q11.23 15.78 10.29 15.78L10.29 15.78ZM18.03 12.92L18.03 12.92Q17.91 12.92 17.84 12.85L17.84 12.85L17.84 12.85Q17.77 12.77 17.77 12.64L17.77 12.64L17.77 4.47L17.77 4.47Q17.77 4.10 17.75 3.93L17.75 3.93L17.75 3.93Q17.72 3.77 17.57 3.64L17.57 3.64L17.57 3.64Q17.42 3.51 17.05 3.51L17.05 3.51L17.05 3.51Q16.88 3.51 16.80 3.46L16.80 3.46L16.80 3.46Q16.72 3.42 16.72 3.23L16.72 3.23L16.72 3.23Q16.72 3.15 16.77 3.07L16.77 3.07L16.77 3.07Q16.83 3.00 16.94 2.98L16.94 2.98L16.94 2.98Q17.82 2.86 18.45 2.62L18.45 2.62L18.45 2.62Q18.65 2.55 18.77 2.53L18.77 2.53L18.82 2.53L18.82 2.53Q19.04 2.53 19.04 2.80L19.04 2.80L19.04 7.03L19.08 7.03L19.08 7.03Q19.49 6.62 20.00 6.42L20.00 6.42L20.00 6.42Q20.51 6.22 21.01 6.22L21.01 6.22L21.01 6.22Q21.84 6.22 22.51 6.64L22.51 6.64L22.51 6.64Q23.18 7.06 23.57 7.81L23.57 7.81L23.57 7.81Q23.95 8.55 23.95 9.51L23.95 9.51L23.95 9.51Q23.95 10.44 23.51 11.22L23.51 11.22L23.51 11.22Q23.07 12.00 22.33 12.45L22.33 12.45L22.33 12.45Q21.59 12.89 20.75 12.89L20.75 12.89L20.75 12.89Q19.50 12.89 18.59 12.21L18.59 12.21L18.52 12.21L18.52 12.21Q18.47 12.32 18.40 12.52L18.40 12.52L18.40 12.52Q18.33 12.71 18.24 12.82L18.24 12.82L18.24 12.82Q18.16 12.92 18.03 12.92L18.03 12.92ZM20.62 12.42L20.62 12.42Q21.48 12.42 22.00 11.64L22.00 11.64L22.00 11.64Q22.53 10.86 22.53 9.56L22.53 9.56L22.53 9.56Q22.53 8.47 22.02 7.69L22.02 7.69L22.02 7.69Q21.52 6.92 20.52 6.92L20.52 6.92L20.52 6.92Q19.64 6.92 19.04 7.56L19.04 7.56L19.04 11.26L19.04 11.26Q19.08 11.48 19.29 11.75L19.29 11.75L19.29 11.75Q19.49 12.03 19.83 12.22L19.83 12.22L19.83 12.22Q20.17 12.42 20.62 12.42L20.62 12.42ZM28.38 12.89L28.38 12.89Q27.33 12.89 26.59 12.45L26.59 12.45L26.59 12.45Q25.86 12.00 25.48 11.23L25.48 11.23L25.48 11.23Q25.10 10.46 25.10 9.52L25.10 9.52L25.10 9.52Q25.10 8.69 25.49 7.93L25.49 7.93L25.49 7.93Q25.87 7.17 26.59 6.69L26.59 6.69L26.59 6.69Q27.30 6.22 28.22 6.22L28.22 6.22L28.22 6.22Q29.47 6.22 30.14 6.85L30.14 6.85L30.14 6.85Q30.81 7.49 30.91 8.57L30.91 8.57L30.91 8.57Q30.91 9.03 30.66 9.20L30.66 9.20L30.66 9.20Q30.41 9.37 29.93 9.37L29.93 9.37L26.53 9.37L26.53 9.37Q26.53 10.67 27.07 11.43L27.07 11.43L27.07 11.43Q27.61 12.19 28.74 12.19L28.74 12.19L28.74 12.19Q29.34 12.19 29.76 11.94L29.76 11.94L29.76 11.94Q30.18 11.68 30.56 11.06L30.56 11.06L30.56 11.06Q30.63 10.99 30.70 10.99L30.70 10.99L30.70 10.99Q30.80 10.99 30.87 11.05L30.87 11.05L30.87 11.05Q31.01 11.13 31.01 11.30L31.01 11.30L31.01 11.30Q31.01 11.38 30.98 11.42L30.98 11.42L30.98 11.42Q30.55 12.12 29.88 12.51L29.88 12.51L29.88 12.51Q29.22 12.89 28.38 12.89L28.38 12.89ZM26.53 8.83L28.81 8.83L28.81 8.83Q29.53 8.83 29.57 8.25L29.57 8.25L29.57 8.25Q29.57 7.60 29.22 7.15L29.22 7.15L29.22 7.15Q28.87 6.71 28.22 6.71L28.22 6.71L28.22 6.71Q27.51 6.71 27.05 7.27L27.05 7.27L27.05 7.27Q26.59 7.84 26.53 8.83L26.53 8.83ZM32.24 12.77L32.24 12.77Q32.14 12.77 32.08 12.68L32.08 12.68L32.08 12.68Q32.02 12.60 32.02 12.49L32.02 12.49L32.02 12.49Q32.03 12.31 32.10 12.27L32.10 12.27L32.10 12.27Q32.17 12.24 32.35 12.24L32.35 12.24L32.35 12.24Q32.72 12.24 32.87 12.11L32.87 12.11L32.87 12.11Q33.03 11.98 33.05 11.82L33.05 11.82L33.05 11.82Q33.07 11.65 33.07 11.28L33.07 11.28L33.07 8.08L33.07 8.08Q33.07 7.71 33.05 7.55L33.05 7.55L33.05 7.55Q33.03 7.38 32.87 7.25L32.87 7.25L32.87 7.25Q32.72 7.13 32.35 7.13L32.35 7.13L32.35 7.13Q32.19 7.13 32.10 7.08L32.10 7.08L32.10 7.08Q32.02 7.03 32.02 6.85L32.02 6.85L32.02 6.85Q32.02 6.76 32.07 6.69L32.07 6.69L32.07 6.69Q32.13 6.61 32.24 6.59L32.24 6.59L32.24 6.59Q33.15 6.45 33.74 6.23L33.74 6.23L33.74 6.23Q33.98 6.16 34.06 6.15L34.06 6.15L34.10 6.15L34.10 6.15Q34.33 6.15 34.33 6.41L34.33 6.41L34.33 7.28L34.37 7.28L34.37 7.28Q34.86 6.79 35.36 6.50L35.36 6.50L35.36 6.50Q35.87 6.22 36.27 6.22L36.27 6.22L36.27 6.22Q36.74 6.22 37.01 6.56L37.01 6.56L37.01 6.56Q37.28 6.90 37.28 7.35L37.28 7.35L37.28 7.35Q37.28 7.74 37.04 8.05L37.04 8.05L37.04 8.05Q36.81 8.36 36.39 8.36L36.39 8.36L36.39 8.36Q36.19 8.36 36.04 8.27L36.04 8.27L36.04 8.27Q35.90 8.19 35.88 8.13L35.88 8.13L35.88 8.13Q35.90 8.11 36.02 7.96L36.02 7.96L36.02 7.96Q36.15 7.81 36.15 7.62L36.15 7.62L36.15 7.62Q36.15 7.36 36.02 7.21L36.02 7.21L36.02 7.21Q35.88 7.06 35.66 7.06L35.66 7.06L35.66 7.06Q35.42 7.06 35.06 7.29L35.06 7.29L35.06 7.29Q34.69 7.52 34.34 7.87L34.34 7.87L34.34 11.28L34.34 11.28Q34.34 11.65 34.37 11.82L34.37 11.82L34.37 11.82Q34.40 11.98 34.55 12.11L34.55 12.11L34.55 12.11Q34.71 12.24 35.07 12.24L35.07 12.24L35.15 12.24L35.15 12.24Q35.27 12.24 35.32 12.28L35.32 12.28L35.32 12.28Q35.38 12.32 35.39 12.49L35.39 12.49L35.39 12.49Q35.39 12.60 35.34 12.68L35.34 12.68L35.34 12.68Q35.28 12.77 35.17 12.77L35.17 12.77L35.17 12.77Q34.36 12.73 33.70 12.73L33.70 12.73L33.70 12.73Q33.07 12.73 32.24 12.77L32.24 12.77ZM40.56 12.89L40.56 12.89Q39.44 12.89 38.74 12.50L38.74 12.50L38.74 12.50Q38.04 12.11 38.04 11.40L38.04 11.40L38.04 11.40Q38.04 10.99 38.28 10.74L38.28 10.74L38.28 10.74Q38.53 10.49 38.92 10.49L38.92 10.49L38.92 10.49Q39.14 10.49 39.32 10.61L39.32 10.61L39.32 10.61Q39.49 10.74 39.49 10.81L39.49 10.81L39.49 10.81Q39.49 10.82 39.33 10.99L39.33 10.99L39.33 10.99Q39.17 11.16 39.17 11.47L39.17 11.47L39.17 11.47Q39.17 11.89 39.56 12.13L39.56 12.13L39.56 12.13Q39.94 12.38 40.67 12.38L40.67 12.38L40.67 12.38Q41.33 12.38 41.70 12.09L41.70 12.09L41.70 12.09Q42.07 11.80 42.07 11.28L42.07 11.28L42.07 11.28Q42.07 10.93 41.86 10.71L41.86 10.71L41.86 10.71Q41.65 10.49 41.34 10.36L41.34 10.36L41.34 10.36Q41.02 10.23 40.46 10.07L40.46 10.07L40.46 10.07Q39.77 9.87 39.34 9.67L39.34 9.67L39.34 9.67Q38.91 9.48 38.60 9.09L38.60 9.09L38.60 9.09Q38.29 8.69 38.29 8.06L38.29 8.06L38.29 8.06Q38.29 7.48 38.65 7.06L38.65 7.06L38.65 7.06Q39.02 6.64 39.60 6.43L39.60 6.43L39.60 6.43Q40.18 6.22 40.82 6.22L40.82 6.22L40.82 6.22Q41.65 6.22 42.26 6.57L42.26 6.57L42.26 6.57Q42.87 6.92 42.87 7.55L42.87 7.55L42.87 7.55Q42.87 7.92 42.64 8.19L42.64 8.19L42.64 8.19Q42.41 8.46 42.03 8.46L42.03 8.46L42.03 8.46Q41.80 8.46 41.63 8.33L41.63 8.33L41.63 8.33Q41.45 8.20 41.45 8.13L41.45 8.13L41.45 8.13Q41.45 8.12 41.57 8.02L41.57 8.02L41.57 8.02Q41.68 7.92 41.77 7.79L41.77 7.79L41.77 7.79Q41.86 7.66 41.86 7.48L41.86 7.48L41.86 7.48Q41.83 7.10 41.48 6.89L41.48 6.89L41.48 6.89Q41.13 6.68 40.66 6.68L40.66 6.68L40.66 6.68Q40.12 6.68 39.73 6.92L39.73 6.92L39.73 6.92Q39.33 7.17 39.33 7.60L39.33 7.60L39.33 7.60Q39.33 7.99 39.49 8.23L39.49 8.23L39.49 8.23Q39.66 8.46 40.00 8.60L40.00 8.60L40.00 8.60Q40.33 8.74 41.06 8.97L41.06 8.97L41.06 8.97Q41.80 9.21 42.22 9.42L42.22 9.42L42.22 9.42Q42.64 9.62 42.89 9.96L42.89 9.96L42.89 9.96Q43.13 10.30 43.13 10.86L43.13 10.86L43.13 10.86Q43.13 11.44 42.80 11.91L42.80 11.91L42.80 11.91Q42.46 12.38 41.87 12.64L41.87 12.64L41.87 12.64Q41.29 12.89 40.56 12.89L40.56 12.89ZM44.25 15.64L44.25 15.64Q44.16 15.64 44.09 15.55L44.09 15.55L44.09 15.55Q44.03 15.47 44.03 15.36L44.03 15.36L44.03 15.36Q44.04 15.18 44.11 15.14L44.11 15.14L44.11 15.14Q44.17 15.11 44.35 15.11L44.35 15.11L44.35 15.11Q44.70 15.11 44.86 14.98L44.86 14.98L44.86 14.98Q45.01 14.85 45.05 14.67L45.05 14.67L45.05 14.67Q45.08 14.49 45.08 14.15L45.08 14.15L45.08 8.08L45.08 8.08Q45.08 7.71 45.06 7.55L45.06 7.55L45.06 7.55Q45.04 7.38 44.88 7.25L44.88 7.25L44.88 7.25Q44.73 7.13 44.37 7.13L44.37 7.13L44.37 7.13Q44.20 7.13 44.11 7.08L44.11 7.08L44.11 7.08Q44.03 7.03 44.03 6.85L44.03 6.85L44.03 6.85Q44.03 6.76 44.09 6.69L44.09 6.69L44.09 6.69Q44.14 6.61 44.25 6.59L44.25 6.59L44.25 6.59Q45.16 6.45 45.75 6.23L45.75 6.23L45.75 6.23Q45.99 6.16 46.07 6.15L46.07 6.15L46.12 6.15L46.12 6.15Q46.34 6.15 46.34 6.41L46.34 6.41L46.34 7.08L46.38 7.08L46.38 7.08Q46.79 6.71 47.33 6.46L47.33 6.46L47.33 6.46Q47.88 6.22 48.37 6.22L48.37 6.22L48.37 6.22Q49.21 6.22 49.88 6.64L49.88 6.64L49.88 6.64Q50.54 7.06 50.92 7.82L50.92 7.82L50.92 7.82Q51.30 8.58 51.30 9.55L51.30 9.55L51.30 9.55Q51.30 10.53 50.85 11.29L50.85 11.29L50.85 11.29Q50.40 12.05 49.66 12.47L49.66 12.47L49.66 12.47Q48.92 12.89 48.09 12.89L48.09 12.89L48.09 12.89Q47.52 12.89 47.12 12.78L47.12 12.78L47.12 12.78Q46.73 12.66 46.41 12.46L46.41 12.46L46.35 12.46L46.35 14.15L46.35 14.15Q46.35 14.49 46.39 14.67L46.39 14.67L46.39 14.67Q46.42 14.85 46.58 14.98L46.58 14.98L46.58 14.98Q46.73 15.11 47.08 15.11L47.08 15.11L47.17 15.11L47.17 15.11Q47.28 15.11 47.33 15.15L47.33 15.15L47.33 15.15Q47.39 15.19 47.40 15.36L47.40 15.36L47.40 15.36Q47.40 15.47 47.35 15.55L47.35 15.55L47.35 15.55Q47.29 15.64 47.18 15.64L47.18 15.64L47.18 15.64Q46.37 15.60 45.71 15.60L45.71 15.60L45.71 15.60Q45.08 15.60 44.25 15.64L44.25 15.64ZM47.98 12.42L47.98 12.42Q48.96 12.42 49.41 11.55L49.41 11.55L49.41 11.55Q49.87 10.68 49.87 9.59L49.87 9.59L49.87 9.59Q49.87 8.50 49.36 7.71L49.36 7.71L49.36 7.71Q48.86 6.92 47.87 6.92L47.87 6.92L47.87 6.92Q47.38 6.92 47.03 7.11L47.03 7.11L47.03 7.11Q46.69 7.29 46.35 7.64L46.35 7.64L46.35 11.40L46.35 11.40Q46.52 11.82 46.95 12.12L46.95 12.12L46.95 12.12Q47.38 12.42 47.98 12.42L47.98 12.42ZM54.24 12.89L54.24 12.89Q53.40 12.89 52.88 12.42L52.88 12.42L52.88 12.42Q52.36 11.94 52.36 11.23L52.36 11.23L52.36 11.23Q52.36 10.35 52.95 9.91L52.95 9.91L52.95 9.91Q53.54 9.46 54.35 9.33L54.35 9.33L54.35 9.33Q55.16 9.20 56.45 9.13L56.45 9.13L56.45 8.02L56.45 8.02Q56.45 7.34 56.11 6.98L56.11 6.98L56.11 6.98Q55.76 6.62 55.01 6.62L55.01 6.62L55.01 6.62Q54.57 6.62 54.25 6.89L54.25 6.89L54.25 6.89Q53.93 7.15 53.93 7.60L53.93 7.60L53.93 7.60Q53.93 7.83 54.03 7.97L54.03 7.97L54.03 7.97Q54.14 8.12 54.26 8.22L54.26 8.22L54.26 8.22Q54.38 8.32 54.38 8.33L54.38 8.33L54.38 8.33Q54.38 8.41 54.20 8.55L54.20 8.55L54.20 8.55Q54.03 8.68 53.77 8.68L53.77 8.68L53.77 8.68Q53.35 8.68 53.11 8.37L53.11 8.37L53.11 8.37Q52.86 8.06 52.86 7.64L52.86 7.64L52.86 7.64Q52.86 6.92 53.52 6.57L53.52 6.57L53.52 6.57Q54.17 6.22 55.09 6.22L55.09 6.22L55.09 6.22Q56.24 6.22 56.96 6.65L56.96 6.65L56.96 6.65Q57.68 7.08 57.68 8.26L57.68 8.26L57.68 11.52L57.68 11.52Q57.69 11.82 57.86 12.08L57.86 12.08L57.86 12.08Q58.03 12.35 58.41 12.35L58.41 12.35L58.41 12.35Q58.52 12.35 58.57 12.39L58.57 12.39L58.57 12.39Q58.62 12.43 58.62 12.57L58.62 12.57L58.62 12.57Q58.62 12.74 58.36 12.82L58.36 12.82L58.36 12.82Q58.10 12.89 57.85 12.89L57.85 12.89L57.85 12.89Q57.32 12.89 56.91 12.59L56.91 12.59L56.91 12.59Q56.50 12.28 56.45 11.76L56.45 11.76L56.45 11.76Q56.15 12.31 55.55 12.60L55.55 12.60L55.55 12.60Q54.94 12.89 54.24 12.89L54.24 12.89ZM54.68 12.14L54.68 12.14Q55.16 12.14 55.57 11.90L55.57 11.90L55.57 11.90Q55.97 11.66 56.21 11.25L56.21 11.25L56.21 11.25Q56.45 10.84 56.45 10.33L56.45 10.33L56.45 9.53L56.45 9.53Q54.98 9.65 54.38 10.01L54.38 10.01L54.38 10.01Q53.77 10.37 53.77 11.19L53.77 11.19L53.77 11.19Q53.77 12.14 54.68 12.14L54.68 12.14ZM62.52 12.89L62.52 12.89Q61.10 12.89 60.28 11.98L60.28 11.98L60.28 11.98Q59.47 11.07 59.47 9.55L59.47 9.55L59.47 9.55Q59.50 8.60 59.94 7.85L59.94 7.85L59.94 7.85Q60.38 7.10 61.12 6.67L61.12 6.67L61.12 6.67Q61.87 6.24 62.76 6.22L62.76 6.22L62.76 6.22Q63.66 6.22 64.31 6.55L64.31 6.55L64.31 6.55Q64.96 6.89 64.96 7.67L64.96 7.67L64.96 7.67Q64.96 8.11 64.70 8.44L64.70 8.44L64.70 8.44Q64.44 8.76 64.01 8.76L64.01 8.76L64.01 8.76Q63.74 8.76 63.55 8.62L63.55 8.62L63.55 8.62Q63.36 8.48 63.36 8.39L63.36 8.39L63.36 8.39Q63.36 8.37 63.49 8.26L63.49 8.26L63.49 8.26Q63.62 8.15 63.72 7.99L63.72 7.99L63.72 7.99Q63.83 7.83 63.83 7.62L63.83 7.62L63.83 7.62Q63.83 7.18 63.51 6.96L63.51 6.96L63.51 6.96Q63.20 6.73 62.75 6.73L62.75 6.73L62.75 6.73Q61.67 6.73 61.29 7.53L61.29 7.53L61.29 7.53Q60.90 8.32 60.90 9.51L60.90 9.51L60.90 9.51Q60.90 10.68 61.43 11.44L61.43 11.44L61.43 11.44Q61.96 12.19 62.85 12.19L62.85 12.19L62.85 12.19Q63.45 12.19 63.88 11.94L63.88 11.94L63.88 11.94Q64.30 11.68 64.65 11.14L64.65 11.14L64.65 11.14Q64.69 11.07 64.79 11.07L64.79 11.07L64.79 11.07Q64.86 11.07 64.95 11.12L64.95 11.12L64.95 11.12Q65.02 11.14 65.06 11.21L65.06 11.21L65.06 11.21Q65.10 11.28 65.10 11.35L65.10 11.35L65.10 11.35Q65.10 11.40 65.06 11.47L65.06 11.47L65.06 11.47Q64.60 12.12 63.91 12.51L63.91 12.51L63.91 12.51Q63.22 12.89 62.52 12.89L62.52 12.89ZM69.40 12.89L69.40 12.89Q68.35 12.89 67.61 12.45L67.61 12.45L67.61 12.45Q66.88 12.00 66.50 11.23L66.50 11.23L66.50 11.23Q66.12 10.46 66.12 9.52L66.12 9.52L66.12 9.52Q66.12 8.69 66.51 7.93L66.51 7.93L66.51 7.93Q66.89 7.17 67.61 6.69L67.61 6.69L67.61 6.69Q68.32 6.22 69.24 6.22L69.24 6.22L69.24 6.22Q70.49 6.22 71.16 6.85L71.16 6.85L71.16 6.85Q71.83 7.49 71.93 8.57L71.93 8.57L71.93 8.57Q71.93 9.03 71.68 9.20L71.68 9.20L71.68 9.20Q71.43 9.37 70.95 9.37L70.95 9.37L67.55 9.37L67.55 9.37Q67.55 10.67 68.09 11.43L68.09 11.43L68.09 11.43Q68.63 12.19 69.76 12.19L69.76 12.19L69.76 12.19Q70.36 12.19 70.78 11.94L70.78 11.94L70.78 11.94Q71.20 11.68 71.58 11.06L71.58 11.06L71.58 11.06Q71.65 10.99 71.72 10.99L71.72 10.99L71.72 10.99Q71.82 10.99 71.89 11.05L71.89 11.05L71.89 11.05Q72.03 11.13 72.03 11.30L72.03 11.30L72.03 11.30Q72.03 11.38 72.00 11.42L72.00 11.42L72.00 11.42Q71.57 12.12 70.90 12.51L70.90 12.51L70.90 12.51Q70.24 12.89 69.40 12.89L69.40 12.89ZM67.55 8.83L69.83 8.83L69.83 8.83Q70.55 8.83 70.59 8.25L70.59 8.25L70.59 8.25Q70.59 7.60 70.24 7.15L70.24 7.15L70.24 7.15Q69.89 6.71 69.24 6.71L69.24 6.71L69.24 6.71Q68.53 6.71 68.07 7.27L68.07 7.27L68.07 7.27Q67.61 7.84 67.55 8.83L67.55 8.83ZM76.54 12.77L76.54 12.77Q76.43 12.77 76.36 12.68L76.36 12.68L76.36 12.68Q76.30 12.59 76.30 12.46L76.30 12.46L76.30 12.46Q76.31 12.25 76.38 12.21L76.38 12.21L76.38 12.21Q76.45 12.17 76.65 12.17L76.65 12.17L76.65 12.17Q77.06 12.17 77.25 12.02L77.25 12.02L77.25 12.02Q77.45 11.87 77.50 11.66L77.50 11.66L77.50 11.66Q77.55 11.44 77.56 11.09L77.56 11.09L77.56 5.53L77.56 5.53Q77.55 5.18 77.50 4.96L77.50 4.96L77.50 4.96Q77.45 4.75 77.25 4.60L77.25 4.60L77.25 4.60Q77.06 4.45 76.65 4.45L76.65 4.45L76.57 4.45L76.57 4.45Q76.43 4.45 76.37 4.40L76.37 4.40L76.37 4.40Q76.31 4.35 76.30 4.16L76.30 4.16L76.30 4.16Q76.30 4.03 76.36 3.94L76.36 3.94L76.36 3.94Q76.43 3.85 76.54 3.85L76.54 3.85L76.54 3.85Q77.46 3.89 78.20 3.89L78.20 3.89L80.39 3.89L80.39 3.89Q81.73 3.89 82.83 4.43L82.83 4.43L82.83 4.43Q83.93 4.97 84.57 5.98L84.57 5.98L84.57 5.98Q85.20 6.99 85.20 8.36L85.20 8.36L85.20 8.36Q85.20 9.79 84.48 10.77L84.48 10.77L84.48 10.77Q83.76 11.76 82.61 12.24L82.61 12.24L82.61 12.24Q81.45 12.73 80.14 12.73L80.14 12.73L78.20 12.73L78.20 12.73Q77.46 12.73 76.54 12.77L76.54 12.77ZM80.35 12.21L80.35 12.21Q81.98 12.21 82.75 11.19L82.75 11.19L82.75 11.19Q83.51 10.18 83.51 8.36L83.51 8.36L83.51 8.36Q83.51 7.21 83.10 6.31L83.10 6.31L83.10 6.31Q82.68 5.40 81.90 4.90L81.90 4.90L81.90 4.90Q81.12 4.40 80.04 4.40L80.04 4.40L78.95 4.41L78.95 11.26L78.95 11.26Q78.95 11.80 79.28 12.01L79.28 12.01L79.28 12.01Q79.60 12.21 80.35 12.21L80.35 12.21ZM87.23 15.78L87.23 15.78Q86.63 15.78 86.16 15.39L86.16 15.39L86.16 15.39Q85.69 15.01 85.69 14.48L85.69 14.48L85.69 14.48Q85.69 13.85 86.04 13.67L86.04 13.67L86.04 13.67Q86.39 13.50 86.59 13.50L86.59 13.50L86.59 13.50Q86.83 13.50 86.98 13.59L86.98 13.59L86.98 13.59Q87.14 13.69 87.14 13.78L87.14 13.78L87.14 13.78Q87.14 13.80 87.02 13.92L87.02 13.92L87.02 13.92Q86.91 14.03 86.91 14.31L86.91 14.31L86.91 14.31Q86.91 14.59 87.09 14.80L87.09 14.80L87.09 14.80Q87.26 15.01 87.58 15.01L87.58 15.01L87.58 15.01Q88.47 15.01 89.31 13.20L89.31 13.20L89.31 13.20Q89.36 13.01 89.36 12.91L89.36 12.91L89.36 12.91Q89.36 12.77 89.29 12.56L89.29 12.56L89.29 12.56Q89.01 11.93 88.35 10.22L88.35 10.22L88.35 10.22Q87.78 8.69 87.42 7.90L87.42 7.90L87.42 7.90Q87.18 7.35 86.97 7.15L86.97 7.15L86.97 7.15Q86.76 6.94 86.35 6.89L86.35 6.89L86.35 6.89Q86.31 6.87 86.20 6.86L86.20 6.86L86.20 6.86Q86.09 6.85 86.06 6.79L86.06 6.79L86.06 6.79Q86.03 6.73 86.03 6.59L86.03 6.59L86.03 6.59Q86.03 6.43 86.12 6.38L86.12 6.38L86.12 6.38Q86.21 6.34 86.35 6.34L86.35 6.34L86.35 6.34Q86.48 6.33 86.52 6.33L86.52 6.33L86.52 6.33Q87.37 6.29 87.86 6.57L87.86 6.57L87.86 6.57Q88.35 6.86 88.68 7.57L88.68 7.57L88.68 7.57Q88.98 8.29 89.22 8.93L89.22 8.93L89.22 8.93Q89.78 10.44 90.13 11.14L90.13 11.14L90.17 11.14L91.55 7.48L91.55 7.48Q91.62 7.24 91.62 7.14L91.62 7.14L91.62 7.14Q91.62 6.99 91.48 6.93L91.48 6.93L91.48 6.93Q91.34 6.87 91.01 6.87L91.01 6.87L90.93 6.87L90.93 6.87Q90.82 6.87 90.77 6.83L90.77 6.83L90.77 6.83Q90.72 6.79 90.71 6.62L90.71 6.62L90.71 6.62Q90.71 6.52 90.76 6.43L90.76 6.43L90.76 6.43Q90.80 6.34 90.90 6.34L90.90 6.34L90.90 6.34Q91.70 6.38 92.26 6.38L92.26 6.38L92.26 6.38Q92.48 6.38 93.13 6.36L93.13 6.36L93.42 6.34L93.42 6.34Q93.52 6.34 93.58 6.43L93.58 6.43L93.58 6.43Q93.63 6.52 93.63 6.62L93.63 6.62L93.63 6.62Q93.62 6.79 93.56 6.83L93.56 6.83L93.56 6.83Q93.51 6.87 93.39 6.87L93.39 6.87L93.39 6.87Q92.88 6.87 92.60 7.04L92.60 7.04L92.60 7.04Q92.32 7.21 92.12 7.70L92.12 7.70L92.12 7.70Q91.80 8.50 91.08 10.26L91.08 10.26L91.08 10.26Q90.37 12.03 90.02 12.87L90.02 12.87L90.02 12.87Q89.52 14.07 88.84 14.92L88.84 14.92L88.84 14.92Q88.17 15.78 87.23 15.78L87.23 15.78ZM94.30 12.77L94.30 12.77Q94.21 12.77 94.14 12.68L94.14 12.68L94.14 12.68Q94.08 12.60 94.08 12.49L94.08 12.49L94.08 12.49Q94.09 12.31 94.16 12.27L94.16 12.27L94.16 12.27Q94.23 12.24 94.42 12.24L94.42 12.24L94.42 12.24Q94.78 12.24 94.93 12.11L94.93 12.11L94.93 12.11Q95.09 11.98 95.11 11.82L95.11 11.82L95.11 11.82Q95.13 11.65 95.13 11.28L95.13 11.28L95.13 8.08L95.13 8.08Q95.13 7.71 95.11 7.55L95.11 7.55L95.11 7.55Q95.09 7.38 94.93 7.25L94.93 7.25L94.93 7.25Q94.78 7.13 94.42 7.13L94.42 7.13L94.42 7.13Q94.25 7.13 94.16 7.08L94.16 7.08L94.16 7.08Q94.08 7.03 94.08 6.85L94.08 6.85L94.08 6.85Q94.08 6.76 94.14 6.69L94.14 6.69L94.14 6.69Q94.19 6.61 94.30 6.59L94.30 6.59L94.30 6.59Q95.21 6.45 95.80 6.23L95.80 6.23L95.80 6.23Q96.04 6.16 96.12 6.15L96.12 6.15L96.17 6.15L96.17 6.15Q96.39 6.15 96.39 6.41L96.39 6.41L96.39 7.29L96.43 7.29L96.43 7.29Q96.84 6.92 97.09 6.71L97.09 6.71L97.09 6.71Q97.34 6.51 97.74 6.36L97.74 6.36L97.74 6.36Q98.14 6.22 98.69 6.22L98.69 6.22L98.69 6.22Q99.64 6.22 100.20 6.79L100.20 6.79L100.20 6.79Q100.76 7.36 100.76 8.30L100.76 8.30L100.76 11.28L100.76 11.28Q100.76 11.65 100.79 11.82L100.79 11.82L100.79 11.82Q100.81 11.98 100.97 12.11L100.97 12.11L100.97 12.11Q101.12 12.24 101.49 12.24L101.49 12.24L101.57 12.24L101.57 12.24Q101.68 12.24 101.74 12.28L101.74 12.28L101.74 12.28Q101.79 12.32 101.81 12.49L101.81 12.49L101.81 12.49Q101.81 12.60 101.75 12.68L101.75 12.68L101.75 12.68Q101.68 12.77 101.58 12.77L101.58 12.77L101.58 12.77Q100.77 12.73 100.11 12.73L100.11 12.73L100.11 12.73Q99.48 12.73 98.66 12.77L98.66 12.77L98.66 12.77Q98.56 12.77 98.50 12.68L98.50 12.68L98.50 12.68Q98.43 12.60 98.43 12.49L98.43 12.49L98.43 12.49Q98.45 12.31 98.51 12.27L98.51 12.27L98.51 12.27Q98.57 12.24 98.76 12.24L98.76 12.24L98.76 12.24Q99.12 12.24 99.27 12.11L99.27 12.11L99.27 12.11Q99.43 11.98 99.46 11.82L99.46 11.82L99.46 11.82Q99.48 11.65 99.48 11.28L99.48 11.28L99.48 8.32L99.48 8.32Q99.48 7.67 99.08 7.33L99.08 7.33L99.08 7.33Q98.67 6.99 98.14 6.99L98.14 6.99L98.14 6.99Q97.50 6.99 97.03 7.30L97.03 7.30L97.03 7.30Q96.57 7.62 96.40 7.95L96.40 7.95L96.40 11.28L96.40 11.28Q96.40 11.65 96.43 11.82L96.43 11.82L96.43 11.82Q96.46 11.98 96.61 12.11L96.61 12.11L96.61 12.11Q96.77 12.24 97.13 12.24L97.13 12.24L97.22 12.24L97.22 12.24Q97.33 12.24 97.38 12.28L97.38 12.28L97.38 12.28Q97.44 12.32 97.45 12.49L97.45 12.49L97.45 12.49Q97.45 12.60 97.40 12.68L97.40 12.68L97.40 12.68Q97.34 12.77 97.23 12.77L97.23 12.77L97.23 12.77Q96.42 12.73 95.76 12.73L95.76 12.73L95.76 12.73Q95.13 12.73 94.30 12.77L94.30 12.77ZM104.36 12.89L104.36 12.89Q103.52 12.89 103.00 12.42L103.00 12.42L103.00 12.42Q102.48 11.94 102.48 11.23L102.48 11.23L102.48 11.23Q102.48 10.35 103.07 9.91L103.07 9.91L103.07 9.91Q103.66 9.46 104.47 9.33L104.47 9.33L104.47 9.33Q105.28 9.20 106.57 9.13L106.57 9.13L106.57 8.02L106.57 8.02Q106.57 7.34 106.23 6.98L106.23 6.98L106.23 6.98Q105.88 6.62 105.13 6.62L105.13 6.62L105.13 6.62Q104.69 6.62 104.37 6.89L104.37 6.89L104.37 6.89Q104.05 7.15 104.05 7.60L104.05 7.60L104.05 7.60Q104.05 7.83 104.15 7.97L104.15 7.97L104.15 7.97Q104.26 8.12 104.38 8.22L104.38 8.22L104.38 8.22Q104.50 8.32 104.50 8.33L104.50 8.33L104.50 8.33Q104.50 8.41 104.32 8.55L104.32 8.55L104.32 8.55Q104.15 8.68 103.89 8.68L103.89 8.68L103.89 8.68Q103.47 8.68 103.23 8.37L103.23 8.37L103.23 8.37Q102.98 8.06 102.98 7.64L102.98 7.64L102.98 7.64Q102.98 6.92 103.64 6.57L103.64 6.57L103.64 6.57Q104.29 6.22 105.21 6.22L105.21 6.22L105.21 6.22Q106.36 6.22 107.08 6.65L107.08 6.65L107.08 6.65Q107.80 7.08 107.80 8.26L107.80 8.26L107.80 11.52L107.80 11.52Q107.81 11.82 107.98 12.08L107.98 12.08L107.98 12.08Q108.15 12.35 108.53 12.35L108.53 12.35L108.53 12.35Q108.64 12.35 108.69 12.39L108.69 12.39L108.69 12.39Q108.74 12.43 108.74 12.57L108.74 12.57L108.74 12.57Q108.74 12.74 108.48 12.82L108.48 12.82L108.48 12.82Q108.22 12.89 107.97 12.89L107.97 12.89L107.97 12.89Q107.44 12.89 107.03 12.59L107.03 12.59L107.03 12.59Q106.62 12.28 106.57 11.76L106.57 11.76L106.57 11.76Q106.27 12.31 105.67 12.60L105.67 12.60L105.67 12.60Q105.06 12.89 104.36 12.89L104.36 12.89ZM104.80 12.14L104.80 12.14Q105.28 12.14 105.69 11.90L105.69 11.90L105.69 11.90Q106.09 11.66 106.33 11.25L106.33 11.25L106.33 11.25Q106.57 10.84 106.57 10.33L106.57 10.33L106.57 9.53L106.57 9.53Q105.10 9.65 104.50 10.01L104.50 10.01L104.50 10.01Q103.89 10.37 103.89 11.19L103.89 11.19L103.89 11.19Q103.89 12.14 104.80 12.14L104.80 12.14ZM109.72 12.77L109.72 12.77Q109.62 12.77 109.56 12.68L109.56 12.68L109.56 12.68Q109.49 12.60 109.49 12.49L109.49 12.49L109.49 12.49Q109.51 12.31 109.57 12.27L109.57 12.27L109.57 12.27Q109.63 12.24 109.82 12.24L109.82 12.24L109.82 12.24Q110.18 12.24 110.33 12.11L110.33 12.11L110.33 12.11Q110.49 11.98 110.52 11.82L110.52 11.82L110.52 11.82Q110.54 11.65 110.54 11.28L110.54 11.28L110.54 8.08L110.54 8.08Q110.54 7.71 110.52 7.55L110.52 7.55L110.52 7.55Q110.50 7.38 110.35 7.25L110.35 7.25L110.35 7.25Q110.19 7.13 109.83 7.13L109.83 7.13L109.83 7.13Q109.66 7.13 109.58 7.08L109.58 7.08L109.58 7.08Q109.49 7.03 109.49 6.85L109.49 6.85L109.49 6.85Q109.49 6.76 109.55 6.69L109.55 6.69L109.55 6.69Q109.61 6.61 109.72 6.59L109.72 6.59L109.72 6.59Q110.63 6.45 111.22 6.23L111.22 6.23L111.22 6.23Q111.45 6.16 111.54 6.15L111.54 6.15L111.58 6.15L111.58 6.15Q111.80 6.15 111.80 6.41L111.80 6.41L111.80 7.29L111.85 7.29L111.85 7.29Q111.93 7.21 112.27 6.88L112.27 6.88L112.27 6.88Q112.60 6.55 113.03 6.38L113.03 6.38L113.03 6.38Q113.46 6.22 114.00 6.22L114.00 6.22L114.00 6.22Q114.67 6.22 115.16 6.50L115.16 6.50L115.16 6.50Q115.65 6.79 115.89 7.29L115.89 7.29L115.92 7.29L115.92 7.29Q116.47 6.78 116.96 6.50L116.96 6.50L116.96 6.50Q117.46 6.22 118.24 6.22L118.24 6.22L118.24 6.22Q119.20 6.22 119.76 6.79L119.76 6.79L119.76 6.79Q120.32 7.36 120.32 8.30L120.32 8.30L120.32 11.28L120.32 11.28Q120.32 11.65 120.34 11.82L120.34 11.82L120.34 11.82Q120.37 11.98 120.53 12.11L120.53 12.11L120.53 12.11Q120.68 12.24 121.04 12.24L121.04 12.24L121.13 12.24L121.13 12.24Q121.24 12.24 121.30 12.28L121.30 12.28L121.30 12.28Q121.35 12.32 121.37 12.49L121.37 12.49L121.37 12.49Q121.37 12.60 121.30 12.68L121.30 12.68L121.30 12.68Q121.24 12.77 121.14 12.77L121.14 12.77L121.14 12.77Q120.33 12.73 119.67 12.73L119.67 12.73L119.67 12.73Q119.04 12.73 118.22 12.77L118.22 12.77L118.22 12.77Q118.10 12.77 118.05 12.68L118.05 12.68L118.05 12.68Q117.99 12.60 117.99 12.49L117.99 12.49L117.99 12.49Q118.01 12.31 118.07 12.27L118.07 12.27L118.07 12.27Q118.13 12.24 118.31 12.24L118.31 12.24L118.31 12.24Q118.68 12.24 118.83 12.11L118.83 12.11L118.83 12.11Q118.99 11.98 119.01 11.82L119.01 11.82L119.01 11.82Q119.04 11.65 119.04 11.28L119.04 11.28L119.04 8.32L119.04 8.32Q119.04 7.67 118.64 7.33L118.64 7.33L118.64 7.33Q118.23 6.99 117.70 6.99L117.70 6.99L117.70 6.99Q117.05 6.99 116.65 7.29L116.65 7.29L116.65 7.29Q116.24 7.60 116.07 7.95L116.07 7.95L116.07 11.28L116.07 11.28Q116.07 11.37 116.07 11.66L116.07 11.66L116.07 11.66Q116.06 11.96 116.22 12.10L116.22 12.10L116.22 12.10Q116.38 12.24 116.75 12.24L116.75 12.24L116.83 12.24L116.83 12.24Q116.96 12.24 117.00 12.28L117.00 12.28L117.00 12.28Q117.05 12.32 117.07 12.49L117.07 12.49L117.07 12.49Q117.07 12.60 117.01 12.68L117.01 12.68L117.01 12.68Q116.96 12.77 116.84 12.77L116.84 12.77L116.84 12.77Q116.02 12.73 115.42 12.73L115.42 12.73L115.42 12.73Q114.84 12.73 114.02 12.77L114.02 12.77L114.02 12.77Q113.90 12.77 113.85 12.68L113.85 12.68L113.85 12.68Q113.79 12.60 113.79 12.49L113.79 12.49L113.79 12.49Q113.81 12.31 113.87 12.27L113.87 12.27L113.87 12.27Q113.93 12.24 114.11 12.24L114.11 12.24L114.11 12.24Q114.58 12.24 114.69 12.05L114.69 12.05L114.69 12.05Q114.80 11.86 114.79 11.61L114.79 11.61L114.79 11.61Q114.79 11.37 114.79 11.28L114.79 11.28L114.79 8.32L114.79 8.32Q114.79 7.67 114.39 7.33L114.39 7.33L114.39 7.33Q113.99 6.99 113.46 6.99L113.46 6.99L113.46 6.99Q112.81 6.99 112.41 7.29L112.41 7.29L112.41 7.29Q112 7.60 111.82 7.95L111.82 7.95L111.82 11.28L111.82 11.28Q111.82 11.65 111.85 11.82L111.85 11.82L111.85 11.82Q111.87 11.98 112.03 12.11L112.03 12.11L112.03 12.11Q112.18 12.24 112.55 12.24L112.55 12.24L112.63 12.24L112.63 12.24Q112.74 12.24 112.80 12.28L112.80 12.28L112.80 12.28Q112.85 12.32 112.87 12.49L112.87 12.49L112.87 12.49Q112.87 12.60 112.81 12.68L112.81 12.68L112.81 12.68Q112.76 12.77 112.64 12.77L112.64 12.77L112.64 12.77Q111.83 12.73 111.17 12.73L111.17 12.73L111.17 12.73Q110.54 12.73 109.72 12.77L109.72 12.77ZM122.25 12.77L122.25 12.77Q122.15 12.77 122.09 12.68L122.09 12.68L122.09 12.68Q122.02 12.60 122.02 12.49L122.02 12.49L122.02 12.49Q122.04 12.31 122.11 12.27L122.11 12.27L122.11 12.27Q122.18 12.24 122.36 12.24L122.36 12.24L122.36 12.24Q122.72 12.24 122.88 12.11L122.88 12.11L122.88 12.11Q123.03 11.98 123.05 11.82L123.05 11.82L123.05 11.82Q123.07 11.65 123.07 11.28L123.07 11.28L123.07 8.08L123.07 8.08Q123.07 7.71 123.05 7.55L123.05 7.55L123.05 7.55Q123.03 7.38 122.88 7.25L122.88 7.25L122.88 7.25Q122.72 7.13 122.36 7.13L122.36 7.13L122.36 7.13Q122.19 7.13 122.11 7.08L122.11 7.08L122.11 7.08Q122.02 7.03 122.02 6.85L122.02 6.85L122.02 6.85Q122.02 6.76 122.08 6.69L122.08 6.69L122.08 6.69Q122.14 6.61 122.25 6.59L122.25 6.59L122.25 6.59Q123.13 6.47 123.76 6.23L123.76 6.23L123.76 6.23Q123.96 6.16 124.08 6.15L124.08 6.15L124.12 6.15L124.12 6.15Q124.35 6.15 124.35 6.41L124.35 6.41L124.35 11.28L124.35 11.28Q124.35 11.65 124.38 11.82L124.38 11.82L124.38 11.82Q124.40 11.98 124.56 12.11L124.56 12.11L124.56 12.11Q124.71 12.24 125.08 12.24L125.08 12.24L125.16 12.24L125.16 12.24Q125.27 12.24 125.33 12.28L125.33 12.28L125.33 12.28Q125.38 12.32 125.40 12.49L125.40 12.49L125.40 12.49Q125.40 12.60 125.34 12.68L125.34 12.68L125.34 12.68Q125.29 12.77 125.17 12.77L125.17 12.77L125.17 12.77Q124.36 12.73 123.70 12.73L123.70 12.73L123.70 12.73Q123.07 12.73 122.25 12.77L122.25 12.77ZM123.63 4.59L123.63 4.59Q123.24 4.59 122.98 4.35L122.98 4.35L122.98 4.35Q122.71 4.10 122.71 3.74L122.71 3.74L122.71 3.74Q122.71 3.42 123.03 3.16L123.03 3.16L123.03 3.16Q123.35 2.91 123.76 2.91L123.76 2.91L123.76 2.91Q124.11 2.91 124.33 3.16L124.33 3.16L124.33 3.16Q124.56 3.40 124.56 3.78L124.56 3.78L124.56 3.78Q124.56 4.12 124.29 4.35L124.29 4.35L124.29 4.35Q124.03 4.59 123.63 4.59L123.63 4.59ZM129.33 12.89L129.33 12.89Q127.90 12.89 127.09 11.98L127.09 11.98L127.09 11.98Q126.28 11.07 126.28 9.55L126.28 9.55L126.28 9.55Q126.31 8.60 126.75 7.85L126.75 7.85L126.75 7.85Q127.19 7.10 127.93 6.67L127.93 6.67L127.93 6.67Q128.67 6.24 129.57 6.22L129.57 6.22L129.57 6.22Q130.47 6.22 131.12 6.55L131.12 6.55L131.12 6.55Q131.77 6.89 131.77 7.67L131.77 7.67L131.77 7.67Q131.77 8.11 131.51 8.44L131.51 8.44L131.51 8.44Q131.25 8.76 130.82 8.76L130.82 8.76L130.82 8.76Q130.55 8.76 130.36 8.62L130.36 8.62L130.36 8.62Q130.17 8.48 130.17 8.39L130.17 8.39L130.17 8.39Q130.17 8.37 130.30 8.26L130.30 8.26L130.30 8.26Q130.42 8.15 130.53 7.99L130.53 7.99L130.53 7.99Q130.63 7.83 130.63 7.62L130.63 7.62L130.63 7.62Q130.63 7.18 130.32 6.96L130.32 6.96L130.32 6.96Q130.00 6.73 129.56 6.73L129.56 6.73L129.56 6.73Q128.48 6.73 128.09 7.53L128.09 7.53L128.09 7.53Q127.71 8.32 127.71 9.51L127.71 9.51L127.71 9.51Q127.71 10.68 128.24 11.44L128.24 11.44L128.24 11.44Q128.77 12.19 129.65 12.19L129.65 12.19L129.65 12.19Q130.26 12.19 130.68 11.94L130.68 11.94L130.68 11.94Q131.11 11.68 131.46 11.14L131.46 11.14L131.46 11.14Q131.50 11.07 131.60 11.07L131.60 11.07L131.60 11.07Q131.67 11.07 131.75 11.12L131.75 11.12L131.75 11.12Q131.82 11.14 131.87 11.21L131.87 11.21L131.87 11.21Q131.91 11.28 131.91 11.35L131.91 11.35L131.91 11.35Q131.91 11.40 131.87 11.47L131.87 11.47L131.87 11.47Q131.40 12.12 130.72 12.51L130.72 12.51L130.72 12.51Q130.03 12.89 129.33 12.89L129.33 12.89ZM135.41 12.89L135.41 12.89Q134.29 12.89 133.59 12.50L133.59 12.50L133.59 12.50Q132.89 12.11 132.89 11.40L132.89 11.40L132.89 11.40Q132.89 10.99 133.13 10.74L133.13 10.74L133.13 10.74Q133.38 10.49 133.77 10.49L133.77 10.49L133.77 10.49Q133.99 10.49 134.17 10.61L134.17 10.61L134.17 10.61Q134.34 10.74 134.34 10.81L134.34 10.81L134.34 10.81Q134.34 10.82 134.18 10.99L134.18 10.99L134.18 10.99Q134.02 11.16 134.02 11.47L134.02 11.47L134.02 11.47Q134.02 11.89 134.41 12.13L134.41 12.13L134.41 12.13Q134.79 12.38 135.52 12.38L135.52 12.38L135.52 12.38Q136.18 12.38 136.55 12.09L136.55 12.09L136.55 12.09Q136.92 11.80 136.92 11.28L136.92 11.28L136.92 11.28Q136.92 10.93 136.71 10.71L136.71 10.71L136.71 10.71Q136.50 10.49 136.19 10.36L136.19 10.36L136.19 10.36Q135.87 10.23 135.31 10.07L135.31 10.07L135.31 10.07Q134.62 9.87 134.19 9.67L134.19 9.67L134.19 9.67Q133.76 9.48 133.45 9.09L133.45 9.09L133.45 9.09Q133.14 8.69 133.14 8.06L133.14 8.06L133.14 8.06Q133.14 7.48 133.50 7.06L133.50 7.06L133.50 7.06Q133.87 6.64 134.45 6.43L134.45 6.43L134.45 6.43Q135.03 6.22 135.67 6.22L135.67 6.22L135.67 6.22Q136.50 6.22 137.11 6.57L137.11 6.57L137.11 6.57Q137.72 6.92 137.72 7.55L137.72 7.55L137.72 7.55Q137.72 7.92 137.49 8.19L137.49 8.19L137.49 8.19Q137.26 8.46 136.88 8.46L136.88 8.46L136.88 8.46Q136.65 8.46 136.48 8.33L136.48 8.33L136.48 8.33Q136.30 8.20 136.30 8.13L136.30 8.13L136.30 8.13Q136.30 8.12 136.42 8.02L136.42 8.02L136.42 8.02Q136.53 7.92 136.62 7.79L136.62 7.79L136.62 7.79Q136.71 7.66 136.71 7.48L136.71 7.48L136.71 7.48Q136.68 7.10 136.33 6.89L136.33 6.89L136.33 6.89Q135.98 6.68 135.51 6.68L135.51 6.68L135.51 6.68Q134.97 6.68 134.57 6.92L134.57 6.92L134.57 6.92Q134.18 7.17 134.18 7.60L134.18 7.60L134.18 7.60Q134.18 7.99 134.34 8.23L134.34 8.23L134.34 8.23Q134.51 8.46 134.85 8.60L134.85 8.60L134.85 8.60Q135.18 8.74 135.91 8.97L135.91 8.97L135.91 8.97Q136.65 9.21 137.07 9.42L137.07 9.42L137.07 9.42Q137.49 9.62 137.74 9.96L137.74 9.96L137.74 9.96Q137.98 10.30 137.98 10.86L137.98 10.86L137.98 10.86Q137.98 11.44 137.65 11.91L137.65 11.91L137.65 11.91Q137.31 12.38 136.72 12.64L136.72 12.64L136.72 12.64Q136.14 12.89 135.41 12.89L135.41 12.89Z"></path></g><!----><!----></svg>