<svg width="251" height="27" viewBox="0 0 251 27" fill="none" xmlns="http://www.w3.org/2000/svg">
<g clip-path="url(#clip0_127_2)">
<path d="M25.4 0.8V25.3H0.8V0.8H25.3M26.1 0H0V26.2H26.2V0H26.1Z" fill="url(#paint0_linear_127_2)"/>
<path d="M13.1 5.8001L20.4 13.1001L13.1 20.4001L5.79998 13.1001L13.1 5.8001ZM13.1 4.6001L4.59998 13.1001L13.1 21.6001L21.6 13.1001L13.1 4.6001Z" fill="url(#paint1_linear_127_2)"/>
<path d="M13.1 10.3001L15.9 13.1001L13.1 15.9001L10.3 13.1001L13.1 10.3001ZM13.1 9.1001L9.09998 13.1001L13.1 17.1001L17.1 13.1001L13.1 9.1001Z" fill="url(#paint2_linear_127_2)"/>
<path d="M37.4 19.1C36.1 19.1 35 18.8 33.9 18.2C32.9 17.6 32 16.7 31.4 15.6C30.8 14.5 30.5 13.2 30.5 11.7C30.5 10.2 30.8 8.90005 31.4 7.70005C32 6.50005 32.8 5.70005 33.9 5.00005C35 4.40005 36.3 4.00005 37.8 4.00005C39.1 4.00005 40.2 4.30005 41.2 4.80005C42.2 5.30005 42.7 6.10005 42.7 7.20005C42.7 7.90005 42.5 8.40005 42.1 8.90005C41.7 9.40005 41.1 9.60005 40.4 9.60005C40.1 9.60005 39.9 9.60005 39.7 9.50005C39.5 9.50005 39.4 9.30005 39.3 9.10005C39.3 9.00005 39.2 8.90005 39.2 8.80005C39.2 8.80005 39.3 8.70005 39.5 8.60005C39.7 8.50005 39.9 8.30005 40.1 8.00005C40.3 7.80005 40.3 7.50005 40.3 7.10005C40.3 6.40005 40.1 5.90005 39.6 5.50005C39.2 5.10005 38.5 4.90005 37.7 4.90005C36.8 4.90005 36 5.20005 35.3 5.70005C34.6 6.20005 34 7.00005 33.6 8.00005C33.2 9.00005 33 10.2 33 11.6C33 12.8 33.2 13.9 33.6 14.9C34 15.9 34.6 16.6 35.4 17.2C36.2 17.8 37.1 18.1 38.1 18.1C38.9 18.1 39.6 17.9 40.2 17.6C40.8 17.3 41.3 16.7 41.8 16C41.8 15.9 42 15.8 42.1 15.8C42.2 15.8 42.4 15.8 42.5 15.9C42.7 16.1 42.9 16.2 42.9 16.4V16.6C42.3 17.3 41.8 17.9 41.3 18.2C40.8 18.6 40.3 18.8 39.7 19C39.1 19.1 38.4 19.2001 37.5 19.2001L37.4 19.1ZM45.9 23.5C45.3 23.5 44.7 23.3 44.2 22.9C43.7 22.5 43.4 22 43.4 21.4C43.4 20.7 43.6 20.3 44 20.1C44.4 19.9 44.7 19.8 44.9 19.8C45.1 19.8 45.4 19.8 45.5 19.9C45.7 20 45.7 20.1001 45.7 20.2001C45.7 20.2001 45.7 20.2 45.5 20.4C45.4 20.5 45.3 20.7 45.3 21C45.3 21.3 45.3 21.6 45.6 21.8C45.8 22 46.1 22.1 46.4 22.1C47.3 22.1 48.3 21.1001 49.2 19.2001C49.2 19.0001 49.2 18.8001 49.2 18.7001C49.2 18.6001 49.2 18.4 49.1 18.1C48.8 17.4 48.3 16.2 47.6 14.4C47 12.8 46.5 11.5 46.1 10.7C45.8 10.1 45.6 9.70005 45.4 9.50005C45.2 9.30005 44.8 9.10005 44.4 9.10005C44.4 9.10005 44.3 9.10005 44.1 9.10005C44 9.10005 43.9 9.10005 43.9 9.00005C43.9 9.00005 43.9 8.80005 43.9 8.70005C43.9 8.50005 43.9 8.40005 44 8.40005C44 8.40005 44.2 8.40005 44.4 8.40005C44.5 8.40005 44.6 8.40005 44.7 8.40005C45.6 8.40005 46.3 8.40005 46.8 8.80005C47.3 9.10005 47.8 9.60005 48.1 10.4C48.4 11.2 48.7 11.9 49 12.6C49.6 14.2 50.1 15.4 50.5 16.1L52.7 10.2C52.7 9.90005 52.8 9.80005 52.8 9.70005C52.8 9.50005 52.8 9.40005 52.6 9.40005C52.5 9.40005 52.2 9.40005 51.9 9.40005H51.8C51.7 9.40005 51.6 9.40005 51.5 9.40005C51.5 9.40005 51.5 9.20005 51.5 9.10005C51.5 9.00005 51.5 8.90005 51.5 8.80005C51.5 8.80005 51.6 8.70005 51.7 8.70005C52.6 8.70005 53.3 8.70005 53.9 8.70005C54.1 8.70005 54.6 8.70005 55.3 8.70005H55.8C55.9 8.70005 56 8.70005 56 8.80005C56 8.80005 56 9.00005 56 9.10005C56 9.30005 56 9.40005 55.9 9.40005C55.9 9.40005 55.7 9.40005 55.6 9.40005C55 9.40005 54.6 9.40005 54.3 9.70005C54 9.90005 53.7 10.2 53.5 10.8C53.1 11.7 52.6 13 51.8 14.9C51 16.8 50.5 18.2 50.1 19.1C49.6 20.4 48.9 21.5 48.2 22.4C47.5 23.3 46.6 23.8 45.6 23.8L45.9 23.5ZM58.3 18.9C58.2 18.9 58.1 18.9 58 18.8C58 18.8 57.9 18.6 57.9 18.5V5.40005C57.9 5.00005 57.9 4.70005 57.9 4.50005C57.9 4.30005 57.8 4.20005 57.6 4.00005C57.4 3.90005 57.2 3.80005 56.8 3.80005C56.6 3.80005 56.5 3.80005 56.4 3.80005C56.4 3.80005 56.3 3.60005 56.3 3.40005C56.3 3.40005 56.3 3.20005 56.3 3.10005C56.3 3.10005 56.5 3.00005 56.6 3.00005C57.5 2.90005 58.3 2.70005 59 2.40005C59.2 2.40005 59.4 2.30005 59.5 2.30005C59.7 2.30005 59.9 2.40005 59.9 2.70005V9.50005C60.3 9.10005 60.8 8.70005 61.4 8.50005C61.9 8.30005 62.5 8.20005 63 8.20005C63.9 8.20005 64.7 8.40005 65.4 8.90005C66.1 9.30005 66.7 10 67.1 10.8C67.5 11.6 67.7 12.5 67.7 13.5C67.7 14.5 67.5 15.4 67 16.2C66.5 17 65.9 17.7 65.1 18.2C64.3 18.7 63.5 18.9 62.6 18.9C61.3 18.9 60.1 18.5 59.1 17.8H59C59 17.9 58.9 18.1 58.8 18.3C58.8 18.5 58.6 18.7 58.5 18.8C58.5 18.9 58.3 19 58.2 19L58.3 18.9ZM62.5 18.1C63.4 18.1 64.2 17.7 64.7 16.9C65.3 16.1 65.5 15 65.5 13.6C65.5 12.4 65.2 11.4 64.7 10.6C64.2 9.80005 63.4 9.40005 62.3 9.40005C61.4 9.40005 60.6 9.70005 59.9 10.4V16.3C59.9 16.5 60.1 16.8 60.3 17.1C60.5 17.4 60.8 17.7 61.2 17.9C61.6 18.1 62 18.2 62.5 18.2V18.1ZM74.9 18.9C73.8 18.9 72.8 18.7 72 18.2C71.2 17.7 70.6 17.1 70.2 16.2C69.8 15.4 69.6 14.5 69.6 13.5C69.6 12.6 69.8 11.8 70.2 11C70.6 10.2 71.2 9.50005 72 9.00005C72.8 8.50005 73.6 8.20005 74.6 8.20005C75.9 8.20005 77 8.50005 77.7 9.20005C78.4 9.90005 78.8 10.8 78.9 12C78.9 12.5 78.8 12.8 78.5 13C78.2 13.2 77.8 13.3 77.3 13.3H71.9C71.9 14.7 72.2 15.8 72.8 16.6C73.4 17.4 74.3 17.8 75.5 17.8C76.1 17.8 76.7 17.7 77.1 17.4C77.5 17.1 78 16.7 78.4 16C78.4 16 78.5 15.9 78.6 15.9C78.7 15.9 78.8 15.9 78.9 15.9C79 15.9 79.1 16.1 79.1 16.3C79.1 16.3 79.1 16.4 79.1 16.5C78.6 17.2 78.1 17.8 77.3 18.2C76.6 18.6 75.8 18.8 74.9 18.8V18.9ZM71.9 12.4H75.6C76.4 12.4 76.8 12.1 76.8 11.5C76.8 10.8 76.6 10.2 76.2 9.70005C75.8 9.20005 75.3 9.00005 74.6 9.00005C73.8 9.00005 73.2 9.30005 72.7 9.90005C72.2 10.5 71.9 11.3 71.9 12.4ZM81 18.7001C80.9 18.7001 80.8 18.7 80.7 18.6C80.7 18.6 80.7 18.4 80.7 18.3C80.7 18.1 80.7 18 80.8 17.9C80.8 17.9 81 17.9 81.2 17.9C81.6 17.9 81.9 17.9 82 17.7C82.2 17.6 82.3 17.4 82.3 17.2C82.3 17 82.3 16.7 82.3 16.3V11.2C82.3 10.8 82.3 10.5 82.3 10.4C82.3 10.2 82.2 10.1 82 9.90005C81.8 9.80005 81.6 9.70005 81.2 9.70005C81 9.70005 80.9 9.70005 80.8 9.70005C80.8 9.70005 80.7 9.50005 80.7 9.30005C80.7 9.30005 80.7 9.10005 80.7 9.00005C80.7 9.00005 80.9 8.90005 81 8.80005C82 8.70005 82.8 8.50005 83.4 8.20005C83.7 8.20005 83.8 8.10005 83.9 8.10005C84.1 8.10005 84.3 8.20005 84.3 8.50005V9.90005C84.8 9.40005 85.4 9.00005 85.9 8.70005C86.4 8.40005 86.9 8.30005 87.4 8.30005C87.9 8.30005 88.3 8.50005 88.6 8.80005C88.9 9.20005 89 9.60005 89 10.1C89 10.5 88.9 10.9 88.6 11.2C88.4 11.5 88 11.7 87.6 11.7C87.4 11.7 87.2 11.7 87 11.6C86.9 11.6 86.8 11.4 86.7 11.4C86.7 11.4 86.7 11.3 86.9 11.1C87 10.9 87.1 10.8 87.1 10.6C87.1 10.3 87.1 10.1 86.9 9.90005C86.8 9.70005 86.6 9.70005 86.3 9.70005C86 9.70005 85.7 9.80005 85.3 10.1C84.9 10.3 84.5 10.7 84.1 11V16.5C84.1 16.9 84.1 17.2 84.1 17.4C84.1 17.6 84.2 17.7 84.4 17.9C84.6 18 84.8 18.1 85.2 18.1H85.3C85.4 18.1 85.5 18.1 85.6 18.1C85.6 18.1 85.7 18.3 85.7 18.4C85.7 18.5 85.7 18.6001 85.7 18.7001C85.7 18.7001 85.5 18.8 85.4 18.8C84.5 18.8 83.7 18.8 83 18.8C82.3 18.8 81.5 18.8 80.7 18.8L81 18.7001ZM94.3 18.9C93.1 18.9 92.1 18.7 91.4 18.3C90.7 17.9 90.3 17.3 90.3 16.5C90.3 16.1 90.4 15.7 90.7 15.4C91 15.1 91.3 15 91.7 15C91.9 15 92.1 15 92.3 15.2C92.5 15.3 92.6 15.4 92.6 15.5C92.6 15.5 92.6 15.6 92.3 15.8C92.1 16 92 16.2 92 16.6C92 17 92.2 17.4 92.6 17.7C93 18 93.6 18.1 94.4 18.1C95.1 18.1 95.7 17.9 96.1 17.6C96.5 17.3 96.7 16.9 96.7 16.3C96.7 15.9 96.6 15.6 96.4 15.4C96.2 15.2 95.9 15 95.6 14.8C95.3 14.7 94.8 14.5 94.2 14.3C93.5 14.1 92.9 13.9 92.4 13.7C91.9 13.5 91.5 13.2 91.2 12.8C90.9 12.4 90.7 11.8 90.7 11.1C90.7 10.5 90.9 9.90005 91.3 9.50005C91.7 9.10005 92.2 8.70005 92.8 8.50005C93.4 8.30005 94.1 8.20005 94.8 8.20005C95.7 8.20005 96.5 8.40005 97.1 8.80005C97.8 9.20005 98.1 9.70005 98.1 10.4C98.1 10.8 98 11.1 97.7 11.4C97.5 11.7 97.1 11.8 96.7 11.8C96.5 11.8 96.2 11.8 96.1 11.6C95.9 11.5 95.8 11.4 95.8 11.3C95.8 11.3 95.8 11.3 96 11.1C96.1 11 96.2 10.9 96.3 10.7C96.3 10.6 96.4 10.4 96.4 10.2C96.4 9.80005 96.2 9.50005 95.8 9.30005C95.4 9.10005 95 9.00005 94.5 9.00005C93.9 9.00005 93.4 9.10005 93 9.40005C92.6 9.70005 92.4 10 92.4 10.5C92.4 10.9 92.4 11.3 92.7 11.5C92.9 11.7 93.2 11.9 93.5 12.1C93.9 12.2 94.4 12.4 95.2 12.7C96 13 96.6 13.2 97.1 13.4C97.5 13.6 97.9 13.9 98.2 14.3C98.5 14.7 98.6 15.1 98.6 15.7C98.6 16.3 98.4 16.9 98.1 17.4C97.7 17.9 97.2 18.3 96.6 18.6C96 18.9 95.3 19 94.5 19L94.3 18.9ZM100.2 23.3C100.2 23.3 100 23.3001 99.9 23.2001C99.9 23.2001 99.9 23 99.9 22.9C99.9 22.7 99.9 22.6 100 22.5C100 22.5 100.2 22.5 100.4 22.5C100.8 22.5 101 22.5 101.2 22.3C101.4 22.2 101.5 22 101.5 21.8C101.5 21.6 101.5 21.3 101.5 21V11.3C101.5 10.9 101.5 10.6 101.5 10.5C101.5 10.3 101.4 10.2 101.2 10C101 9.90005 100.8 9.80005 100.4 9.80005C100.2 9.80005 100.1 9.80005 100 9.80005C100 9.80005 99.9 9.60005 99.9 9.40005C99.9 9.40005 99.9 9.20005 99.9 9.10005C99.9 9.10005 100 9.00005 100.2 8.90005C101.2 8.80005 102 8.60005 102.6 8.30005C102.9 8.30005 103 8.20005 103.1 8.20005C103.3 8.20005 103.5 8.30005 103.5 8.60005V9.70005C103.9 9.30005 104.4 9.00005 105 8.70005C105.6 8.40005 106.1 8.30005 106.7 8.30005C107.6 8.30005 108.4 8.50005 109.1 9.00005C109.8 9.40005 110.4 10.1 110.8 10.9C111.2 11.7 111.4 12.6 111.4 13.7C111.4 14.7 111.2 15.7 110.7 16.5C110.2 17.3 109.6 17.9 108.8 18.4C108 18.8 107.2 19.1 106.3 19.1C105.7 19.1 105.2 19.1 104.7 18.9C104.3 18.8 103.9 18.6 103.6 18.4V21.1C103.6 21.5 103.6 21.7 103.6 21.9C103.6 22.1 103.7 22.3 103.9 22.4C104.1 22.5 104.3 22.6 104.7 22.6H104.8C104.9 22.6 105 22.6 105.1 22.6C105.1 22.6 105.2 22.8 105.2 22.9C105.2 23 105.2 23.1001 105.2 23.2001C105.2 23.2001 105 23.3 104.9 23.3C104 23.3 103.2 23.3 102.5 23.3C101.8 23.3 101 23.3 100.2 23.3ZM106.2 18.1C107.2 18.1 108 17.6 108.5 16.7C109 15.8 109.2 14.7 109.2 13.6C109.2 12.4 108.9 11.4 108.4 10.6C107.9 9.80005 107.1 9.30005 106 9.30005C105.5 9.30005 105 9.40005 104.7 9.60005C104.3 9.80005 104 10.1 103.6 10.4V16.4C103.8 16.8 104.1 17.2 104.6 17.6C105.1 17.9 105.6 18.1 106.3 18.1H106.2ZM116.2 18.9C115.3 18.9 114.6 18.6 114 18.1C113.4 17.6 113.2 17 113.2 16.2C113.2 15.3 113.5 14.6 114.1 14.1C114.7 13.6 115.5 13.3 116.3 13.2C117.2 13.1 118.3 13 119.7 12.9V11.1C119.7 10.4 119.5 9.80005 119.2 9.40005C118.8 9.00005 118.2 8.80005 117.4 8.80005C116.9 8.80005 116.5 8.90005 116.2 9.20005C115.9 9.50005 115.7 9.90005 115.7 10.3C115.7 10.5 115.7 10.7 115.9 10.9C116 11.1 116.1 11.2 116.3 11.3C116.4 11.4 116.5 11.5 116.5 11.5C116.5 11.5 116.5 11.7 116.2 11.9C116 12 115.8 12.1 115.5 12.1C115.1 12.1 114.7 11.9 114.4 11.6C114.1 11.3 114 10.9 114 10.4C114 9.60005 114.4 9.10005 115.1 8.70005C115.8 8.30005 116.6 8.10005 117.6 8.10005C118.8 8.10005 119.8 8.30005 120.6 8.80005C121.4 9.30005 121.8 10.1 121.8 11.4V16.6C121.8 16.9 121.9 17.2 122.1 17.5C122.3 17.8 122.6 17.9 123 17.9C123.1 17.9 123.2 17.9 123.3 17.9C123.3 17.9 123.3 18 123.3 18.2C123.3 18.4 123.2 18.5 122.9 18.6C122.6 18.6 122.3 18.7001 122.1 18.7001C121.5 18.7001 121 18.5 120.6 18.2C120.2 17.9 119.9 17.4 119.9 16.9C119.6 17.5 119.1 17.9 118.5 18.2C117.8 18.5 117.1 18.7001 116.4 18.7001L116.2 18.9ZM116.9 17.7C117.4 17.7 117.9 17.6 118.3 17.3C118.7 17 119.1 16.7 119.3 16.3C119.6 15.9 119.7 15.4 119.7 14.8V13.5C118.1 13.6 117 13.9 116.4 14.3C115.7 14.7 115.4 15.3 115.4 16.2C115.4 17.2 115.9 17.7 116.9 17.7ZM129.5 18.9C128 18.9 126.8 18.4 125.9 17.4C125 16.4 124.6 15.1 124.6 13.5C124.6 12.5 124.9 11.6 125.4 10.8C125.9 10 126.5 9.40005 127.3 8.90005C128.1 8.40005 129 8.20005 129.9 8.20005C130.9 8.20005 131.7 8.40005 132.4 8.70005C133.1 9.10005 133.4 9.70005 133.4 10.5C133.4 11 133.3 11.4 133 11.7C132.7 12 132.4 12.2 131.9 12.2C131.6 12.2 131.4 12.2 131.2 12C131 11.9 130.9 11.7 130.9 11.6C130.9 11.6 130.9 11.6 131.1 11.4C131.2 11.3 131.4 11.1 131.5 11C131.6 10.8 131.7 10.6 131.7 10.4C131.7 9.90005 131.5 9.60005 131.2 9.30005C130.9 9.10005 130.5 8.90005 130 8.90005C128.8 8.90005 128.1 9.30005 127.7 10.2C127.3 11 127.1 12.1 127.1 13.4C127.1 14.6 127.4 15.7 127.9 16.5C128.5 17.3 129.2 17.7 130.2 17.7C130.8 17.7 131.4 17.6 131.9 17.3C132.3 17 132.8 16.6 133.1 16C133.1 16 133.2 15.9 133.3 15.9C133.3 15.9 133.5 15.9 133.6 15.9C133.6 15.9 133.7 15.9 133.8 16C133.8 16 133.8 16.1 133.8 16.2C133.8 16.2 133.8 16.3 133.8 16.4C133.3 17.1 132.7 17.6 132 18.1C131.3 18.5 130.5 18.7001 129.8 18.7001L129.5 18.9ZM140.5 18.9C139.4 18.9 138.4 18.7 137.6 18.2C136.8 17.7 136.2 17.1 135.8 16.2C135.4 15.4 135.2 14.5 135.2 13.5C135.2 12.6 135.4 11.8 135.8 11C136.2 10.2 136.8 9.50005 137.6 9.00005C138.4 8.50005 139.2 8.20005 140.2 8.20005C141.5 8.20005 142.6 8.50005 143.3 9.20005C144 9.90005 144.4 10.8 144.5 12C144.5 12.5 144.4 12.8 144.1 13C143.8 13.2 143.4 13.3 142.9 13.3H137.5C137.5 14.7 137.8 15.8 138.4 16.6C139 17.4 139.9 17.8 141.1 17.8C141.7 17.8 142.3 17.7 142.7 17.4C143.1 17.1 143.6 16.7 144 16C144 16 144.1 15.9 144.2 15.9C144.3 15.9 144.4 15.9 144.5 15.9C144.6 15.9 144.7 16.1 144.7 16.3C144.7 16.3 144.7 16.4 144.7 16.5C144.2 17.2 143.7 17.8 142.9 18.2C142.2 18.6 141.4 18.8 140.5 18.8V18.9ZM137.5 12.4H141.2C142 12.4 142.4 12.1 142.4 11.5C142.4 10.8 142.2 10.2 141.8 9.70005C141.4 9.20005 140.9 9.00005 140.2 9.00005C139.4 9.00005 138.8 9.30005 138.3 9.90005C137.8 10.5 137.5 11.3 137.5 12.4ZM151.9 18.7001C151.8 18.7001 151.7 18.7 151.6 18.6C151.6 18.6 151.6 18.4 151.6 18.2C151.6 18 151.6 17.8 151.7 17.8C151.7 17.8 151.9 17.8 152.1 17.8C152.5 17.8 152.9 17.8 153.1 17.6C153.3 17.4 153.4 17.2 153.5 17C153.5 16.8 153.5 16.5 153.5 16.1V7.10005C153.5 6.70005 153.5 6.40005 153.5 6.20005C153.5 6.00005 153.3 5.80005 153.1 5.60005C152.9 5.40005 152.6 5.40005 152.1 5.40005H152C151.9 5.40005 151.7 5.40005 151.7 5.40005C151.7 5.40005 151.6 5.20005 151.6 5.00005C151.6 4.90005 151.6 4.70005 151.6 4.60005C151.6 4.60005 151.8 4.50005 151.9 4.50005C152.9 4.50005 153.8 4.50005 154.6 4.50005H158.1C159.5 4.50005 160.8 4.80005 162 5.40005C163.2 6.00005 164.1 6.80005 164.8 7.90005C165.5 9.00005 165.8 10.3 165.8 11.7C165.8 13.2 165.4 14.5 164.6 15.6C163.8 16.7 162.8 17.4 161.6 18C160.4 18.5 159 18.8 157.6 18.8H154.5C153.7 18.8 152.8 18.8 151.8 18.8L151.9 18.7001ZM158 17.8C159.7 17.8 161 17.3 161.8 16.2C162.6 15.1 163 13.6 163 11.7C163 10.5 162.8 9.40005 162.3 8.40005C161.9 7.40005 161.2 6.70005 160.4 6.10005C159.6 5.60005 158.6 5.30005 157.4 5.30005H155.7V16.3C155.7 16.9 155.9 17.3 156.2 17.5C156.5 17.7 157.1 17.8 157.9 17.8H158ZM169 23.5C168.4 23.5 167.8 23.3 167.3 22.9C166.8 22.5 166.5 22 166.5 21.4C166.5 20.7 166.7 20.3 167.1 20.1C167.5 19.9 167.8 19.8 168 19.8C168.3 19.8 168.5 19.8 168.6 19.9C168.8 20 168.9 20.1001 168.9 20.2001C168.9 20.2001 168.9 20.2 168.7 20.4C168.6 20.5 168.5 20.7 168.5 21C168.5 21.3 168.5 21.6 168.8 21.8C169 22 169.2 22.1 169.6 22.1C170.6 22.1 171.5 21.1001 172.4 19.2001C172.4 19.0001 172.4 18.8001 172.4 18.7001C172.4 18.6001 172.4 18.4 172.3 18.1C172 17.4 171.5 16.2 170.8 14.4C170.2 12.8 169.7 11.5 169.3 10.7C169 10.1 168.8 9.70005 168.6 9.50005C168.4 9.30005 168 9.10005 167.6 9.10005C167.6 9.10005 167.5 9.10005 167.4 9.10005C167.3 9.10005 167.2 9.10005 167.2 9.00005C167.2 9.00005 167.2 8.80005 167.2 8.70005C167.2 8.50005 167.2 8.40005 167.3 8.40005C167.3 8.40005 167.5 8.40005 167.7 8.40005C167.8 8.40005 167.9 8.40005 168 8.40005C168.9 8.40005 169.6 8.40005 170.1 8.80005C170.6 9.10005 171.1 9.60005 171.4 10.4C171.7 11.2 172 11.9 172.3 12.6C172.9 14.2 173.4 15.4 173.8 16.1L176 10.2C176 9.90005 176.1 9.80005 176.1 9.70005C176.1 9.50005 176.1 9.40005 175.9 9.40005C175.8 9.40005 175.5 9.40005 175.1 9.40005H175C174.9 9.40005 174.8 9.40005 174.7 9.40005C174.7 9.40005 174.7 9.20005 174.7 9.10005C174.7 9.00005 174.7 8.90005 174.7 8.80005C174.7 8.80005 174.8 8.70005 174.9 8.70005C175.8 8.70005 176.5 8.70005 177.1 8.70005C177.3 8.70005 177.8 8.70005 178.5 8.70005H179C179.1 8.70005 179.2 8.70005 179.3 8.80005C179.3 8.80005 179.3 9.00005 179.3 9.10005C179.3 9.30005 179.3 9.40005 179.2 9.40005C179.2 9.40005 179.1 9.40005 178.9 9.40005C178.4 9.40005 177.9 9.40005 177.6 9.70005C177.3 9.90005 177 10.2 176.8 10.8C176.5 11.7 175.9 13 175.1 14.9C174.3 16.8 173.8 18.2 173.4 19.1C172.9 20.4 172.2 21.5 171.5 22.4C170.8 23.3 169.9 23.8 168.9 23.8L169 23.5ZM180.3 18.7001C180.3 18.7001 180.1 18.7 180 18.6C180 18.6 180 18.4 180 18.3C180 18.1 180 18 180.1 17.9C180.1 17.9 180.3 17.9 180.5 17.9C180.9 17.9 181.2 17.9 181.3 17.7C181.5 17.6 181.6 17.4 181.6 17.2C181.6 17 181.6 16.7 181.6 16.3V11.2C181.6 10.8 181.6 10.5 181.6 10.4C181.6 10.2 181.5 10.1 181.3 9.90005C181.1 9.80005 180.9 9.70005 180.5 9.70005C180.3 9.70005 180.2 9.70005 180.1 9.70005C180.1 9.70005 180 9.50005 180 9.30005C180 9.30005 180 9.10005 180 9.00005C180 9.00005 180.1 8.90005 180.3 8.80005C181.3 8.70005 182.1 8.50005 182.7 8.20005C183 8.20005 183.1 8.10005 183.2 8.10005C183.4 8.10005 183.6 8.20005 183.6 8.50005V9.90005C184 9.50005 184.4 9.20005 184.7 9.00005C185 8.80005 185.3 8.60005 185.7 8.40005C186.1 8.30005 186.6 8.20005 187.2 8.20005C188.2 8.20005 189 8.50005 189.6 9.10005C190.2 9.70005 190.5 10.5 190.5 11.5V16.3C190.5 16.7 190.5 17 190.5 17.2C190.5 17.4 190.6 17.5 190.8 17.7C191 17.8 191.2 17.9 191.6 17.9H191.7C191.8 17.9 191.9 17.9 192 17.9C192 17.9 192 18.1 192.1 18.2C192.1 18.3 192.1 18.4 192.1 18.5C192.1 18.5 191.9 18.6 191.8 18.6C190.9 18.6 190.1 18.6 189.4 18.6C188.7 18.6 188 18.6 187.1 18.6C187 18.6 186.9 18.6 186.8 18.5C186.8 18.5 186.7 18.3 186.7 18.2C186.7 18 186.7 17.9 186.8 17.8C186.8 17.8 187 17.8 187.2 17.8C187.6 17.8 187.9 17.8 188 17.6C188.2 17.5 188.3 17.3 188.3 17.1C188.3 16.9 188.3 16.6 188.3 16.2V11.5C188.3 10.8 188.1 10.3 187.7 9.90005C187.3 9.50005 186.8 9.40005 186.2 9.40005C185.5 9.40005 184.9 9.60005 184.4 9.90005C183.9 10.2 183.6 10.6 183.4 10.9V16.2C183.4 16.6 183.4 16.9 183.4 17.1C183.4 17.3 183.5 17.4 183.7 17.6C183.9 17.7 184.1 17.8 184.5 17.8H184.6C184.7 17.8 184.8 17.8 184.9 17.8C184.9 17.8 185 18 185 18.1C185 18.2 185 18.3 185 18.4C185 18.4 184.8 18.5 184.7 18.5C183.8 18.5 183 18.5 182.3 18.5C181.6 18.5 180.8 18.5 180 18.5L180.3 18.7001ZM196.4 18.9C195.5 18.9 194.8 18.6 194.2 18.1C193.6 17.6 193.4 17 193.4 16.2C193.4 15.3 193.7 14.6 194.3 14.1C194.9 13.6 195.7 13.3 196.5 13.2C197.4 13.1 198.5 13 199.9 12.9V11.1C199.9 10.4 199.7 9.80005 199.4 9.40005C199 9.00005 198.4 8.80005 197.6 8.80005C197.1 8.80005 196.7 8.90005 196.4 9.20005C196.1 9.50005 195.9 9.90005 195.9 10.3C195.9 10.5 195.9 10.7 196.1 10.9C196.2 11.1 196.3 11.2 196.5 11.3C196.6 11.4 196.7 11.5 196.7 11.5C196.7 11.5 196.7 11.7 196.4 11.9C196.2 12 196 12.1 195.7 12.1C195.3 12.1 194.9 11.9 194.6 11.6C194.3 11.3 194.2 10.9 194.2 10.4C194.2 9.60005 194.6 9.10005 195.3 8.70005C196 8.30005 196.8 8.10005 197.8 8.10005C199 8.10005 200 8.30005 200.8 8.80005C201.6 9.30005 202 10.1 202 11.4V16.6C202 16.9 202.1 17.2 202.3 17.5C202.5 17.8 202.8 17.9 203.2 17.9C203.3 17.9 203.4 17.9 203.5 17.9C203.5 17.9 203.5 18 203.5 18.2C203.5 18.4 203.4 18.5 203.1 18.6C202.8 18.6 202.5 18.7001 202.3 18.7001C201.7 18.7001 201.2 18.5 200.8 18.2C200.4 17.9 200.1 17.4 200.1 16.9C199.8 17.5 199.3 17.9 198.7 18.2C198 18.5 197.3 18.7001 196.6 18.7001L196.4 18.9ZM197.1 17.7C197.6 17.7 198.1 17.6 198.5 17.3C198.9 17 199.3 16.7 199.5 16.3C199.8 15.9 199.9 15.4 199.9 14.8V13.5C198.3 13.6 197.2 13.9 196.6 14.3C195.9 14.7 195.6 15.3 195.6 16.2C195.6 17.2 196.1 17.7 197.1 17.7ZM205 18.7001C204.9 18.7001 204.8 18.7 204.7 18.6C204.7 18.6 204.6 18.4 204.6 18.3C204.6 18.1 204.6 18 204.7 17.9C204.7 17.9 204.9 17.9 205.1 17.9C205.5 17.9 205.8 17.9 205.9 17.7C206.1 17.6 206.2 17.4 206.2 17.2C206.2 17 206.2 16.7 206.2 16.3V11.2C206.2 10.8 206.2 10.5 206.2 10.4C206.2 10.2 206.1 10.1 205.9 9.90005C205.7 9.80005 205.5 9.70005 205.1 9.70005C204.9 9.70005 204.8 9.70005 204.7 9.70005C204.7 9.70005 204.6 9.50005 204.6 9.30005C204.6 9.30005 204.6 9.10005 204.6 9.00005C204.6 9.00005 204.8 8.90005 204.9 8.80005C205.9 8.70005 206.7 8.50005 207.3 8.20005C207.5 8.20005 207.7 8.10005 207.8 8.10005C208 8.10005 208.2 8.20005 208.2 8.50005V9.90005C208.2 9.90005 208.5 9.60005 208.9 9.20005C209.3 8.80005 209.7 8.60005 210.1 8.40005C210.6 8.20005 211.1 8.10005 211.7 8.10005C212.4 8.10005 213 8.20005 213.6 8.50005C214.1 8.80005 214.5 9.20005 214.8 9.80005C215.4 9.30005 215.9 8.80005 216.5 8.50005C217 8.20005 217.7 8.10005 218.6 8.10005C219.6 8.10005 220.4 8.40005 221 9.00005C221.6 9.60005 221.9 10.4 221.9 11.4V16.2C221.9 16.6 221.9 16.9 221.9 17.1C221.9 17.3 222 17.4 222.2 17.6C222.4 17.7 222.6 17.8 223 17.8H223.1C223.2 17.8 223.3 17.8 223.4 17.8C223.4 17.8 223.4 18 223.5 18.1C223.5 18.2 223.5 18.3 223.4 18.4C223.4 18.4 223.3 18.5 223.1 18.5C222.2 18.5 221.4 18.5 220.7 18.5C220 18.5 219.3 18.5 218.4 18.5C218.3 18.5 218.2 18.5 218.1 18.4C218.1 18.4 218.1 18.2 218.1 18.1C218.1 17.9 218.1 17.8 218.2 17.7C218.2 17.7 218.4 17.7 218.6 17.7C219 17.7 219.3 17.7 219.4 17.5C219.6 17.4 219.7 17.2 219.7 17C219.7 16.8 219.7 16.5 219.7 16.1V11.4C219.7 10.7 219.5 10.2 219.1 9.80005C218.7 9.40005 218.2 9.30005 217.6 9.30005C216.9 9.30005 216.3 9.50005 215.9 9.80005C215.5 10.1 215.2 10.5 215 10.9V16.2V16.8C215 17.1 215 17.4 215.2 17.5C215.4 17.6 215.7 17.7 216 17.7H216.1C216.2 17.7 216.3 17.7 216.4 17.7C216.4 17.7 216.4 17.9 216.5 18C216.5 18.1 216.5 18.2 216.5 18.3C216.5 18.3 216.4 18.4 216.2 18.4C215.3 18.4 214.6 18.4 213.9 18.4C213.3 18.4 212.5 18.4 211.7 18.4C211.6 18.4 211.5 18.4 211.4 18.3C211.4 18.3 211.4 18.1 211.4 18C211.4 17.8 211.4 17.7 211.5 17.6C211.5 17.6 211.7 17.6 211.9 17.6C212.4 17.6 212.7 17.5 212.8 17.3C212.9 17.1 213 16.9 213 16.6V16.1V11.4C213 10.7 212.8 10.2 212.4 9.80005C212 9.40005 211.5 9.30005 210.9 9.30005C210.2 9.30005 209.6 9.50005 209.2 9.80005C208.8 10.1 208.4 10.5 208.3 10.9V16.2C208.3 16.6 208.3 16.9 208.3 17.1C208.3 17.3 208.4 17.4 208.6 17.6C208.8 17.7 209 17.8 209.4 17.8H209.5C209.6 17.8 209.7 17.8 209.8 17.8C209.8 17.8 209.8 18 209.9 18.1C209.9 18.2 209.9 18.3 209.9 18.4C209.9 18.4 209.8 18.5 209.6 18.5C208.7 18.5 207.9 18.5 207.2 18.5C206.5 18.5 205.8 18.5 204.9 18.5L205 18.7001ZM225.1 18.7001C225 18.7001 224.9 18.7 224.8 18.6C224.8 18.6 224.7 18.4 224.7 18.3C224.7 18.1 224.7 18 224.8 17.9C224.8 17.9 225 17.9 225.2 17.9C225.6 17.9 225.9 17.9 226 17.7C226.2 17.6 226.3 17.4 226.3 17.2C226.3 17 226.3 16.7 226.3 16.3V11.2C226.3 10.8 226.3 10.5 226.3 10.4C226.3 10.2 226.2 10.1 226 9.90005C225.8 9.80005 225.6 9.70005 225.2 9.70005C225 9.70005 224.9 9.70005 224.8 9.70005C224.8 9.70005 224.7 9.50005 224.7 9.30005C224.7 9.30005 224.7 9.10005 224.7 9.00005C224.7 9.00005 224.9 8.90005 225 8.80005C225.9 8.70005 226.7 8.50005 227.4 8.20005C227.6 8.20005 227.8 8.10005 227.9 8.10005C228.1 8.10005 228.3 8.20005 228.3 8.50005V16.3C228.3 16.7 228.3 17 228.3 17.2C228.3 17.4 228.4 17.5 228.6 17.7C228.8 17.8 229 17.9 229.4 17.9H229.5C229.6 17.9 229.7 17.9 229.8 17.9C229.8 17.9 229.8 18.1 229.9 18.2C229.9 18.3 229.9 18.4 229.9 18.5C229.9 18.5 229.8 18.6 229.6 18.6C228.7 18.6 227.9 18.6 227.2 18.6C226.5 18.6 225.8 18.6 224.9 18.6L225.1 18.7001ZM227.3 5.60005C226.9 5.60005 226.5 5.50005 226.3 5.20005C226 4.90005 225.9 4.60005 225.9 4.20005C225.9 3.90005 226.1 3.50005 226.4 3.30005C226.7 3.00005 227.1 2.90005 227.6 2.90005C228 2.90005 228.3 3.00005 228.5 3.30005C228.7 3.60005 228.9 3.90005 228.9 4.30005C228.9 4.70005 228.8 5.00005 228.5 5.20005C228.2 5.50005 227.9 5.60005 227.4 5.60005H227.3ZM236.4 18.9C234.9 18.9 233.7 18.4 232.8 17.4C231.9 16.4 231.5 15.1 231.5 13.5C231.5 12.5 231.8 11.6 232.3 10.8C232.8 10 233.4 9.40005 234.2 8.90005C235 8.40005 235.9 8.20005 236.8 8.20005C237.8 8.20005 238.6 8.40005 239.3 8.70005C240 9.10005 240.3 9.70005 240.3 10.5C240.3 11 240.2 11.4 239.9 11.7C239.6 12 239.3 12.2 238.8 12.2C238.5 12.2 238.3 12.2 238.1 12C237.9 11.9 237.8 11.7 237.8 11.6C237.8 11.6 237.8 11.6 238 11.4C238.1 11.3 238.3 11.1 238.4 11C238.5 10.8 238.6 10.6 238.6 10.4C238.6 9.90005 238.4 9.60005 238.1 9.30005C237.8 9.10005 237.4 8.90005 236.9 8.90005C235.7 8.90005 235 9.30005 234.5 10.2C234.1 11 233.9 12.1 233.9 13.4C233.9 14.6 234.2 15.7 234.7 16.5C235.3 17.3 236 17.7 237 17.7C237.7 17.7 238.2 17.6 238.7 17.3C239.2 17 239.6 16.6 239.9 16C239.9 16 240 15.9 240.1 15.9H240.3C240.3 15.9 240.4 15.9 240.5 16C240.5 16 240.5 16.1 240.5 16.2C240.5 16.2 240.5 16.3 240.5 16.4C240 17.1 239.4 17.6 238.7 18.1C238 18.5 237.2 18.7001 236.5 18.7001L236.4 18.9ZM246.1 18.9C244.9 18.9 243.9 18.7 243.2 18.3C242.5 17.9 242.1 17.3 242.1 16.5C242.1 16.1 242.2 15.7 242.5 15.4C242.8 15.1 243.1 15 243.5 15C243.7 15 243.9 15 244.1 15.2C244.3 15.3 244.4 15.4 244.4 15.5C244.4 15.5 244.4 15.6 244.1 15.8C243.9 16 243.8 16.2 243.8 16.6C243.8 17 244 17.4 244.4 17.7C244.8 18 245.4 18.1 246.2 18.1C246.9 18.1 247.5 17.9 247.9 17.6C248.3 17.3 248.5 16.9 248.5 16.3C248.5 15.9 248.4 15.6 248.2 15.4C248 15.2 247.7 15 247.4 14.8C247.1 14.7 246.6 14.5 246 14.3C245.3 14.1 244.7 13.9 244.2 13.7C243.7 13.5 243.3 13.2 243 12.8C242.7 12.4 242.5 11.8 242.5 11.1C242.5 10.5 242.7 9.90005 243.1 9.50005C243.5 9.10005 244 8.70005 244.6 8.50005C245.2 8.30005 245.9 8.20005 246.6 8.20005C247.5 8.20005 248.3 8.40005 248.9 8.80005C249.6 9.20005 249.9 9.70005 249.9 10.4C249.9 10.8 249.8 11.1 249.5 11.4C249.3 11.7 248.9 11.8 248.5 11.8C248.3 11.8 248 11.8 247.9 11.6C247.7 11.5 247.6 11.4 247.6 11.3C247.6 11.3 247.6 11.3 247.8 11.1C247.9 11 248 10.9 248.1 10.7C248.1 10.6 248.2 10.4 248.2 10.2C248.2 9.80005 248 9.50005 247.6 9.30005C247.2 9.10005 246.8 9.00005 246.3 9.00005C245.7 9.00005 245.2 9.10005 244.8 9.40005C244.4 9.70005 244.2 10 244.2 10.5C244.2 10.9 244.2 11.3 244.5 11.5C244.7 11.7 245 11.9 245.3 12.1C245.7 12.2 246.2 12.4 247 12.7C247.8 13 248.4 13.2 248.9 13.4C249.3 13.6 249.7 13.9 250 14.3C250.3 14.7 250.4 15.1 250.4 15.7C250.4 16.3 250.2 16.9 249.9 17.4C249.5 17.9 249 18.3 248.4 18.6C247.8 18.9 247.1 19 246.3 19L246.1 18.9Z" fill="url(#paint3_linear_127_2)"/>
</g>
<defs>
<linearGradient id="paint0_linear_127_2" x1="-14.3906" y1="-12.5751" x2="9.35465" y2="-1.50247" gradientUnits="userSpaceOnUse">
<stop stop-color="#49247E"/>
<stop offset="1" stop-color="#AA49C7"/>
</linearGradient>
<linearGradient id="paint1_linear_127_2" x1="-14.8265" y1="-21.2696" x2="0.580692" y2="-14.0851" gradientUnits="userSpaceOnUse">
<stop stop-color="#49247E"/>
<stop offset="1" stop-color="#AA49C7"/>
</linearGradient>
<linearGradient id="paint2_linear_127_2" x1="-1.69279" y1="-7.44712" x2="5.55767" y2="-4.06617" gradientUnits="userSpaceOnUse">
<stop stop-color="#49247E"/>
<stop offset="1" stop-color="#AA49C7"/>
</linearGradient>
<linearGradient id="paint3_linear_127_2" x1="-49526.6" y1="-2286.66" x2="-49327.2" y2="-2277.61" gradientUnits="userSpaceOnUse">
<stop stop-color="#49247E"/>
<stop offset="1" stop-color="#AA49C7"/>
</linearGradient>
<clipPath id="clip0_127_2">
<rect width="250.5" height="26.2" fill="white"/>
</clipPath>
</defs>
</svg>
