<?xml version="1.0" standalone="no"?>
<svg xmlns:xlink="http://www.w3.org/1999/xlink" id="wave" style="transform:rotate(0deg); transition: 0.3s" viewBox="0 0 1440 490" version="1.1" xmlns="http://www.w3.org/2000/svg"><defs><linearGradient id="sw-gradient-0" x1="0" x2="0" y1="1" y2="0"><stop stop-color="rgba(29.412, 196.124, 179.182, 1)" offset="0%"/><stop stop-color="rgba(157.418, 137.332, 92.929, 1)" offset="100%"/></linearGradient></defs><path style="transform:translate(0, 0px); opacity:1" fill="url(#sw-gradient-0)" d="M0,392L26.7,375.7C53.3,359,107,327,160,285.8C213.3,245,267,196,320,179.7C373.3,163,427,180,480,204.2C533.3,229,587,261,640,245C693.3,229,747,163,800,179.7C853.3,196,907,294,960,326.7C1013.3,359,1067,327,1120,261.3C1173.3,196,1227,98,1280,98C1333.3,98,1387,196,1440,261.3C1493.3,327,1547,359,1600,343C1653.3,327,1707,261,1760,212.3C1813.3,163,1867,131,1920,122.5C1973.3,114,2027,131,2080,130.7C2133.3,131,2187,114,2240,106.2C2293.3,98,2347,98,2400,106.2C2453.3,114,2507,131,2560,138.8C2613.3,147,2667,147,2720,171.5C2773.3,196,2827,245,2880,277.7C2933.3,310,2987,327,3040,294C3093.3,261,3147,180,3200,155.2C3253.3,131,3307,163,3360,155.2C3413.3,147,3467,98,3520,73.5C3573.3,49,3627,49,3680,106.2C3733.3,163,3787,278,3813,334.8L3840,392L3840,490L3813.3,490C3786.7,490,3733,490,3680,490C3626.7,490,3573,490,3520,490C3466.7,490,3413,490,3360,490C3306.7,490,3253,490,3200,490C3146.7,490,3093,490,3040,490C2986.7,490,2933,490,2880,490C2826.7,490,2773,490,2720,490C2666.7,490,2613,490,2560,490C2506.7,490,2453,490,2400,490C2346.7,490,2293,490,2240,490C2186.7,490,2133,490,2080,490C2026.7,490,1973,490,1920,490C1866.7,490,1813,490,1760,490C1706.7,490,1653,490,1600,490C1546.7,490,1493,490,1440,490C1386.7,490,1333,490,1280,490C1226.7,490,1173,490,1120,490C1066.7,490,1013,490,960,490C906.7,490,853,490,800,490C746.7,490,693,490,640,490C586.7,490,533,490,480,490C426.7,490,373,490,320,490C266.7,490,213,490,160,490C106.7,490,53,490,27,490L0,490Z"/></svg>